<svg xmlns="http://www.w3.org/2000/svg" viewBox="0 0 155.63 155.63"><defs><style>.cls-1{fill:#d8d8d8;}</style></defs><g id="Layer_2" data-name="Layer 2"><g id="Layer_1-2" data-name="Layer 1"><path class="cls-1" d="M64.62,37.48l-7.1,6.25-4.25-4.9,11.55-9.75h7v35.4h-7.2Z"/><path class="cls-1" d="M101.67,35.68h-14l-.15,5.45a10.05,10.05,0,0,1,3.15-.4,14.77,14.77,0,0,1,4.95.8,11,11,0,0,1,3.87,2.33,10.51,10.51,0,0,1,2.53,3.7,12.62,12.62,0,0,1,.9,4.87,13.33,13.33,0,0,1-1,5.35,11.43,11.43,0,0,1-2.82,4,12.18,12.18,0,0,1-4.28,2.47,16.34,16.34,0,0,1-5.37.85,12.74,12.74,0,0,1-7.7-2.25A11.45,11.45,0,0,1,77.42,56l7.85-1.8a5.07,5.07,0,0,0,1.6,3.08,4.67,4.67,0,0,0,3.25,1.17A5,5,0,0,0,93.94,57a5.31,5.31,0,0,0,1.43-3.8,5.22,5.22,0,0,0-.73-2.87,5.46,5.46,0,0,0-1.9-1.8,8,8,0,0,0-2.62-.93,17.84,17.84,0,0,0-2.9-.25,20.56,20.56,0,0,0-3.73.35,26.32,26.32,0,0,0-3.62,1l.4-19.55h21.4Z"/><path class="cls-1" d="M43.45,89.1l-4.26-6.49H42.3l2.4,4.24,2.54-4.24h3L45.94,89.1v4.84H43.45Z"/><path class="cls-1" d="M51.45,82.61h7.69v2.3h-5.2V87h4.92v2.31H53.94v2.3h5.49v2.31h-8Z"/><path class="cls-1" d="M65.48,82.61h2.06l4.93,11.33H69.66l-1-2.4h-4.4l-.94,2.4H60.58Zm1,3.29-1.38,3.53h2.77Z"/><path class="cls-1" d="M73.93,82.61h4.38a7.24,7.24,0,0,1,1.64.17,3.86,3.86,0,0,1,1.36.56,2.79,2.79,0,0,1,.93,1,3.61,3.61,0,0,1,.34,1.66,3.3,3.3,0,0,1-.62,2,2.81,2.81,0,0,1-1.82,1.06L83,93.94H80l-2.36-4.53H76.42v4.53H73.93Zm2.49,4.69H77.9l.71,0a2.11,2.11,0,0,0,.68-.14,1.17,1.17,0,0,0,.5-.38A1.1,1.1,0,0,0,80,86a1.22,1.22,0,0,0-.17-.68,1.15,1.15,0,0,0-.45-.4,1.94,1.94,0,0,0-.63-.18,5.31,5.31,0,0,0-.68,0H76.42Z"/><path class="cls-1" d="M90.21,85.38a1.69,1.69,0,0,0-.82-.57,3,3,0,0,0-1-.18,2.74,2.74,0,0,0-.56.06,2.13,2.13,0,0,0-.55.2,1.1,1.1,0,0,0-.41.36.89.89,0,0,0-.16.54.92.92,0,0,0,.38.79,3.81,3.81,0,0,0,1,.46l1.26.39a4.78,4.78,0,0,1,1.25.54,3,3,0,0,1,1,.94,2.88,2.88,0,0,1,.38,1.59,3.58,3.58,0,0,1-.35,1.65,3.35,3.35,0,0,1-1,1.16,4,4,0,0,1-1.39.69,6.27,6.27,0,0,1-3.72-.11,5.21,5.21,0,0,1-1.76-1.09l1.77-2a2.67,2.67,0,0,0,1,.79,2.72,2.72,0,0,0,1.21.28,2.68,2.68,0,0,0,.62-.07,2.11,2.11,0,0,0,.56-.22,1.23,1.23,0,0,0,.39-.36.88.88,0,0,0,.16-.53,1,1,0,0,0-.4-.81,3.21,3.21,0,0,0-1-.5c-.39-.14-.82-.28-1.28-.42a6.13,6.13,0,0,1-1.28-.56,3.22,3.22,0,0,1-1-.93,2.66,2.66,0,0,1-.4-1.52,3.4,3.4,0,0,1,.37-1.6,3.34,3.34,0,0,1,1-1.15,4.28,4.28,0,0,1,1.38-.7,5.82,5.82,0,0,1,1.62-.23,6.37,6.37,0,0,1,1.85.27,4.23,4.23,0,0,1,1.62.92Z"/><path class="cls-1" d="M99.14,82.61h2.5V93.94h-2.5Z"/><path class="cls-1" d="M104.23,82.61h3.39l4.82,7.87h0V82.61H115V93.94H111.7l-4.94-8.07h0v8.07h-2.5Z"/><path class="cls-1" d="M22.51,105.83H19.28v-2.21h9v2.21H25V115h-2.5Z"/><path class="cls-1" d="M29.82,103.62h2.5v4.23h4.85v-4.23h2.49V115H37.17v-4.9H32.32V115h-2.5Z"/><path class="cls-1" d="M42.38,103.62h7.7v2.31h-5.2V108h4.91v2.3H44.88v2.31h5.49V115h-8Z"/><path class="cls-1" d="M57.74,103.62H62a10.64,10.64,0,0,1,1.48.11,4.23,4.23,0,0,1,1.33.41,2.47,2.47,0,0,1,1,.88,2.6,2.6,0,0,1,.37,1.48,2.4,2.4,0,0,1-.53,1.59,2.89,2.89,0,0,1-1.42.91v0a3.37,3.37,0,0,1,1,.31,2.71,2.71,0,0,1,.78.6,2.25,2.25,0,0,1,.5.83,2.94,2.94,0,0,1,.18,1,2.72,2.72,0,0,1-.38,1.49,3,3,0,0,1-1,1,4.29,4.29,0,0,1-1.36.53,7.21,7.21,0,0,1-1.52.16H57.74Zm2.5,4.53h1.81a2.76,2.76,0,0,0,.57-.06,1.71,1.71,0,0,0,.5-.21,1.12,1.12,0,0,0,.36-.39,1.15,1.15,0,0,0,.14-.57,1.08,1.08,0,0,0-.16-.59,1,1,0,0,0-.39-.35,1.82,1.82,0,0,0-.54-.19,3,3,0,0,0-.59-.06h-1.7Zm0,4.69h2.24a2.3,2.3,0,0,0,.58-.07,1.43,1.43,0,0,0,.54-.22,1.21,1.21,0,0,0,.39-.42,1.19,1.19,0,0,0,.15-.62,1,1,0,0,0-.2-.65,1.24,1.24,0,0,0-.5-.37,2.29,2.29,0,0,0-.66-.18,5.13,5.13,0,0,0-.65,0H60.24Z"/><path class="cls-1" d="M78,110.58a5.58,5.58,0,0,1-.3,1.86,4.11,4.11,0,0,1-.9,1.47,4.16,4.16,0,0,1-1.5,1,6.3,6.3,0,0,1-4.14,0,4.16,4.16,0,0,1-1.5-1,4.11,4.11,0,0,1-.9-1.47,5.34,5.34,0,0,1-.31-1.86v-7h2.5v6.87a2.57,2.57,0,0,0,.17,1,2.36,2.36,0,0,0,.47.78,2,2,0,0,0,.73.51,2.3,2.3,0,0,0,1.83,0,2.15,2.15,0,0,0,.72-.51,2.36,2.36,0,0,0,.47-.78,2.78,2.78,0,0,0,.17-1v-6.87H78Z"/><path class="cls-1" d="M86.21,106.39a1.85,1.85,0,0,0-.83-.57,3,3,0,0,0-1-.18,2.74,2.74,0,0,0-.56.06,2.79,2.79,0,0,0-.55.2,1.19,1.19,0,0,0-.41.36.9.9,0,0,0-.16.55.91.91,0,0,0,.38.78,3.5,3.5,0,0,0,1,.46l1.26.39a5.37,5.37,0,0,1,1.25.54,3,3,0,0,1,1,1,2.82,2.82,0,0,1,.39,1.58,3.58,3.58,0,0,1-.36,1.65,3.3,3.3,0,0,1-1,1.17,4,4,0,0,1-1.39.69,6.53,6.53,0,0,1-1.67.22,5.92,5.92,0,0,1-2-.34,4.91,4.91,0,0,1-1.76-1.09l1.78-2a2.46,2.46,0,0,0,1,.79,2.59,2.59,0,0,0,1.83.21,2.32,2.32,0,0,0,.56-.21,1.29,1.29,0,0,0,.4-.37.94.94,0,0,0,.15-.53,1,1,0,0,0-.39-.81,3.81,3.81,0,0,0-1-.5c-.39-.14-.82-.28-1.28-.42a5.65,5.65,0,0,1-1.28-.56,3,3,0,0,1-1-.93,2.64,2.64,0,0,1-.39-1.51,3.44,3.44,0,0,1,.36-1.61,3.56,3.56,0,0,1,1-1.15,4.07,4.07,0,0,1,1.38-.69,5.48,5.48,0,0,1,1.62-.24,6.33,6.33,0,0,1,1.85.28,4.21,4.21,0,0,1,1.62.91Z"/><path class="cls-1" d="M90.08,103.62h2.5V115h-2.5Z"/><path class="cls-1" d="M95.17,103.62h3.39l4.82,7.87h0v-7.87h2.49V115h-3.26l-4.94-8.06h0V115H95.17Z"/><path class="cls-1" d="M108.62,103.62h7.7v2.31h-5.2V108H116v2.3h-4.91v2.31h5.49V115h-8Z"/><path class="cls-1" d="M124.53,106.39a1.85,1.85,0,0,0-.83-.57,3,3,0,0,0-1-.18,2.74,2.74,0,0,0-.56.06,2.49,2.49,0,0,0-.54.2,1.22,1.22,0,0,0-.42.36.9.9,0,0,0-.16.55.91.91,0,0,0,.38.78,3.5,3.5,0,0,0,1,.46l1.26.39a5.37,5.37,0,0,1,1.25.54,2.93,2.93,0,0,1,1,1,2.82,2.82,0,0,1,.39,1.58,3.58,3.58,0,0,1-.36,1.65,3.3,3.3,0,0,1-1,1.17,4,4,0,0,1-1.39.69,6.53,6.53,0,0,1-1.67.22,5.92,5.92,0,0,1-2-.34,4.91,4.91,0,0,1-1.76-1.09l1.78-2a2.46,2.46,0,0,0,1,.79,2.76,2.76,0,0,0,1.21.29,2.7,2.7,0,0,0,.62-.08,2.32,2.32,0,0,0,.56-.21,1.29,1.29,0,0,0,.4-.37.94.94,0,0,0,.15-.53,1,1,0,0,0-.39-.81,3.81,3.81,0,0,0-1-.5c-.39-.14-.82-.28-1.28-.42a5.65,5.65,0,0,1-1.28-.56,3,3,0,0,1-1-.93,2.64,2.64,0,0,1-.39-1.51,3.44,3.44,0,0,1,.36-1.61,3.56,3.56,0,0,1,1-1.15,4.07,4.07,0,0,1,1.38-.69,5.48,5.48,0,0,1,1.62-.24,6.33,6.33,0,0,1,1.85.28,4.21,4.21,0,0,1,1.62.91Z"/><path class="cls-1" d="M134,106.39a1.81,1.81,0,0,0-.82-.57,3.06,3.06,0,0,0-1-.18,2.81,2.81,0,0,0-.56.06,2.49,2.49,0,0,0-.54.2,1.22,1.22,0,0,0-.42.36,1,1,0,0,0-.16.55.89.89,0,0,0,.39.78,3.43,3.43,0,0,0,1,.46l1.26.39a5.44,5.44,0,0,1,1.26.54,3,3,0,0,1,1,1,2.91,2.91,0,0,1,.38,1.58,3.71,3.71,0,0,1-.35,1.65,3.41,3.41,0,0,1-.95,1.17,4.17,4.17,0,0,1-1.4.69,6.42,6.42,0,0,1-1.67.22,5.92,5.92,0,0,1-2-.34,5,5,0,0,1-1.76-1.09l1.78-2a2.57,2.57,0,0,0,1,.79,2.73,2.73,0,0,0,1.21.29,2.62,2.62,0,0,0,.61-.08,2.32,2.32,0,0,0,.56-.21,1.19,1.19,0,0,0,.4-.37.94.94,0,0,0,.15-.53,1,1,0,0,0-.39-.81,3.9,3.9,0,0,0-1-.5c-.4-.14-.82-.28-1.28-.42a5.46,5.46,0,0,1-1.28-.56,2.93,2.93,0,0,1-1-.93A2.64,2.64,0,0,1,128,107a3.44,3.44,0,0,1,.36-1.61,3.56,3.56,0,0,1,1-1.15,4.07,4.07,0,0,1,1.38-.69,5.58,5.58,0,0,1,1.62-.24,6.45,6.45,0,0,1,1.86.28,4.25,4.25,0,0,1,1.61.91Z"/><path class="cls-1" d="M155.63,155.63H0V0H155.63ZM1,154.63H154.63V1H1Z"/></g></g></svg>