<svg xmlns="http://www.w3.org/2000/svg" viewBox="0 0 155.63 155.63"><defs><style>.cls-1{fill:#d8d8d8;}</style></defs><g id="Layer_2" data-name="Layer 2"><g id="Layer_1-2" data-name="Layer 1"><path class="cls-1" d="M16,63.38,29.72,51a26.93,26.93,0,0,0,2.1-2.15,4.13,4.13,0,0,0,1-2.8,3.44,3.44,0,0,0-1.3-2.83,4.82,4.82,0,0,0-3.05-1,4.18,4.18,0,0,0-3.28,1.3,5.23,5.23,0,0,0-1.32,3.2l-7.5-.55a12.14,12.14,0,0,1,1.15-4.78A9.93,9.93,0,0,1,20.22,38a11.17,11.17,0,0,1,3.87-2,16.54,16.54,0,0,1,4.83-.67,14.62,14.62,0,0,1,4.5.67,10.6,10.6,0,0,1,3.65,2,9.1,9.1,0,0,1,2.42,3.33A11.55,11.55,0,0,1,40.37,46,12.58,12.58,0,0,1,40,49.05a10.5,10.5,0,0,1-1,2.5,12.19,12.19,0,0,1-1.47,2.08c-.57.63-1.19,1.25-1.85,1.85L25,64.73h15.7v6.6H16Z"/><path class="cls-1" d="M44.77,53.63a36.94,36.94,0,0,1,.57-6.4,18.66,18.66,0,0,1,2-5.9,12.21,12.21,0,0,1,4-4.33,11.66,11.66,0,0,1,6.5-1.67A11.68,11.68,0,0,1,64.42,37a12.18,12.18,0,0,1,4,4.33,18.66,18.66,0,0,1,2,5.9,35.6,35.6,0,0,1,0,12.8,18.84,18.84,0,0,1-2,5.9,12.15,12.15,0,0,1-4,4.32,11.6,11.6,0,0,1-6.5,1.68,11.58,11.58,0,0,1-6.5-1.68,12.18,12.18,0,0,1-4-4.32,18.84,18.84,0,0,1-2-5.9A37,37,0,0,1,44.77,53.63Zm7.5,0c0,.93,0,2,.12,3.35a16,16,0,0,0,.68,3.75,7.92,7.92,0,0,0,1.67,3.05,4.63,4.63,0,0,0,6.33,0,8,8,0,0,0,1.7-3.05A16.55,16.55,0,0,0,63.44,57c.08-1.3.13-2.42.13-3.35s0-2.05-.13-3.35a16.55,16.55,0,0,0-.67-3.75,7.9,7.9,0,0,0-1.7-3.05,4.63,4.63,0,0,0-6.33,0,7.85,7.85,0,0,0-1.67,3.05,16,16,0,0,0-.68,3.75C52.31,51.58,52.27,52.69,52.27,53.63Z"/><path class="cls-1" d="M76.62,35.93h7.8v14.7l13.75-14.7h10.2L92.62,52.38l17.1,18.95H98.82l-14.4-16.8v16.8h-7.8Z"/><path class="cls-1" d="M111.77,53h10.55V42.48h6.3V53h10.55v6.3H128.62V69.88h-6.3V59.33H111.77Z"/><path class="cls-1" d="M37.26,90.46h4.21a8.16,8.16,0,0,1,1.67.16,3.61,3.61,0,0,1,1.36.55,2.74,2.74,0,0,1,.93,1.06,3.59,3.59,0,0,1,.35,1.67,3.9,3.9,0,0,1-.32,1.66,2.75,2.75,0,0,1-.88,1.07,3.55,3.55,0,0,1-1.33.57,7.94,7.94,0,0,1-1.67.17H39.76v4.41h-2.5Zm2.5,4.8h1.66a2.7,2.7,0,0,0,.65-.07,1.63,1.63,0,0,0,.56-.21,1.08,1.08,0,0,0,.4-.42,1.34,1.34,0,0,0,.15-.66,1.1,1.1,0,0,0-.2-.7,1.29,1.29,0,0,0-.51-.41,2.5,2.5,0,0,0-.69-.18,6.34,6.34,0,0,0-.74,0H39.76Z"/><path class="cls-1" d="M47.66,90.46h4.39a7.93,7.93,0,0,1,1.64.16,3.88,3.88,0,0,1,1.36.57,2.79,2.79,0,0,1,.93,1,3.58,3.58,0,0,1,.34,1.66,3.36,3.36,0,0,1-.62,2A2.83,2.83,0,0,1,53.87,97l2.88,4.78h-3l-2.37-4.52H50.16v4.52h-2.5Zm2.5,4.69h1.47l.71,0A2.34,2.34,0,0,0,53,95a1.2,1.2,0,0,0,.51-.38,1.16,1.16,0,0,0,.2-.72,1.18,1.18,0,0,0-.18-.69,1.13,1.13,0,0,0-.45-.39,2,2,0,0,0-.62-.18,4,4,0,0,0-.69-.05H50.16Z"/><path class="cls-1" d="M57.74,96.12a6.42,6.42,0,0,1,.46-2.46,5.3,5.3,0,0,1,1.27-1.88,5.66,5.66,0,0,1,1.94-1.2,7.5,7.5,0,0,1,4.89,0,5.57,5.57,0,0,1,1.94,1.2,5.17,5.17,0,0,1,1.27,1.88,6.81,6.81,0,0,1,0,4.92,5.17,5.17,0,0,1-1.27,1.88,5.57,5.57,0,0,1-1.94,1.2,7.5,7.5,0,0,1-4.89,0,5.66,5.66,0,0,1-1.94-1.2,5.3,5.3,0,0,1-1.27-1.88A6.42,6.42,0,0,1,57.74,96.12Zm2.6,0a4.26,4.26,0,0,0,.24,1.46,3.44,3.44,0,0,0,.72,1.16,3.48,3.48,0,0,0,1.11.76,4,4,0,0,0,2.89,0,3.21,3.21,0,0,0,1.83-1.92,4.26,4.26,0,0,0,.25-1.46,4.34,4.34,0,0,0-.25-1.46,3.52,3.52,0,0,0-.71-1.16,3.41,3.41,0,0,0-1.12-.76,4,4,0,0,0-2.89,0,3.48,3.48,0,0,0-1.11.76,3.54,3.54,0,0,0-.72,1.16A4.34,4.34,0,0,0,60.34,96.12Z"/><path class="cls-1" d="M77.84,98a8.34,8.34,0,0,1-.14,1.52,3.37,3.37,0,0,1-.52,1.31,2.67,2.67,0,0,1-1.09.91,4.34,4.34,0,0,1-1.87.34,3.89,3.89,0,0,1-2.27-.64,3,3,0,0,1-1.2-2L73,98.87a1.09,1.09,0,0,0,.38.71,1.07,1.07,0,0,0,.74.28,1,1,0,0,0,.67-.21,1.24,1.24,0,0,0,.35-.54,2.49,2.49,0,0,0,.14-.69c0-.25,0-.49,0-.7V90.46h2.5Z"/><path class="cls-1" d="M80.4,90.46h7.7v2.3H82.9v2.11h4.91v2.31H82.9v2.3h5.48v2.3h-8Z"/><path class="cls-1" d="M98.11,93.4a2.36,2.36,0,0,0-.9-.69A3,3,0,0,0,96,92.47a3.17,3.17,0,0,0-1.31.27,3.4,3.4,0,0,0-1,.76,3.62,3.62,0,0,0-.68,1.16,4.11,4.11,0,0,0-.25,1.46,4,4,0,0,0,.25,1.46,3.52,3.52,0,0,0,.68,1.16,3.16,3.16,0,0,0,1,.76,3,3,0,0,0,1.26.27,2.87,2.87,0,0,0,1.36-.32,2.61,2.61,0,0,0,1-.9l2.08,1.55a4.24,4.24,0,0,1-1.82,1.49,5.64,5.64,0,0,1-2.27.48,7.16,7.16,0,0,1-2.45-.41,5.66,5.66,0,0,1-1.94-1.2,5.43,5.43,0,0,1-1.27-1.88,6.95,6.95,0,0,1,0-4.92,5.43,5.43,0,0,1,1.27-1.88,5.66,5.66,0,0,1,1.94-1.2,7.16,7.16,0,0,1,2.45-.41,5.89,5.89,0,0,1,1,.09,4.69,4.69,0,0,1,1,.28,4.29,4.29,0,0,1,1,.51,3.6,3.6,0,0,1,.83.78Z"/><path class="cls-1" d="M104.18,92.66h-3.24v-2.2h9v2.2h-3.23v9.12h-2.49Z"/><path class="cls-1" d="M117.09,93.23a1.77,1.77,0,0,0-.83-.57,2.74,2.74,0,0,0-1-.19,2.2,2.2,0,0,0-.56.07,2.06,2.06,0,0,0-.54.2,1.22,1.22,0,0,0-.42.36.89.89,0,0,0-.16.54.91.91,0,0,0,.38.78,3.51,3.51,0,0,0,1,.47c.39.13.81.26,1.26.38a5,5,0,0,1,1.25.55,2.9,2.9,0,0,1,1,.94,2.84,2.84,0,0,1,.39,1.58,3.58,3.58,0,0,1-.36,1.65,3.3,3.3,0,0,1-.95,1.17,4,4,0,0,1-1.39.69,6.07,6.07,0,0,1-1.67.22,6.16,6.16,0,0,1-2-.33,5.21,5.21,0,0,1-1.76-1.09l1.78-2a2.55,2.55,0,0,0,1,.79,2.75,2.75,0,0,0,1.21.28,3.37,3.37,0,0,0,.62-.07,2,2,0,0,0,.56-.22,1.29,1.29,0,0,0,.4-.37.92.92,0,0,0,.15-.53.94.94,0,0,0-.39-.8,3.53,3.53,0,0,0-1-.51c-.39-.14-.82-.27-1.28-.41a6.37,6.37,0,0,1-1.28-.56,3.22,3.22,0,0,1-1-.93,2.68,2.68,0,0,1-.39-1.52,3.4,3.4,0,0,1,.36-1.6,3.46,3.46,0,0,1,1-1.15,4.28,4.28,0,0,1,1.38-.7,5.82,5.82,0,0,1,1.62-.23,6.32,6.32,0,0,1,1.85.27,4.34,4.34,0,0,1,1.62.91Z"/><path class="cls-1" d="M35.33,114.41a2.56,2.56,0,0,0-.91-.68,3,3,0,0,0-1.23-.24,3.13,3.13,0,0,0-1.31.27,3,3,0,0,0-1,.76,3.61,3.61,0,0,0-.69,1.16,4.56,4.56,0,0,0,0,2.92,3.65,3.65,0,0,0,.68,1.15,3,3,0,0,0,1,.76,3,3,0,0,0,1.26.27,2.7,2.7,0,0,0,1.35-.32,2.62,2.62,0,0,0,1-.89l2.08,1.55a4.38,4.38,0,0,1-1.82,1.49,5.69,5.69,0,0,1-2.28.48,6.87,6.87,0,0,1-2.44-.42A5.55,5.55,0,0,1,29,121.48a5.48,5.48,0,0,1-1.27-1.88,6.83,6.83,0,0,1,0-4.93A5.39,5.39,0,0,1,29,112.79,5.55,5.55,0,0,1,31,111.6a6.87,6.87,0,0,1,2.44-.42,5.72,5.72,0,0,1,1,.09,5.42,5.42,0,0,1,1,.28,4.74,4.74,0,0,1,1,.51,4.13,4.13,0,0,1,.83.79Z"/><path class="cls-1" d="M38.59,117.13a6.31,6.31,0,0,1,.46-2.46,5.39,5.39,0,0,1,1.27-1.88,5.64,5.64,0,0,1,1.94-1.19,7.33,7.33,0,0,1,4.89,0,5.64,5.64,0,0,1,1.94,1.19,5.39,5.39,0,0,1,1.27,1.88,6.83,6.83,0,0,1,0,4.93,5.48,5.48,0,0,1-1.27,1.88,5.64,5.64,0,0,1-1.94,1.19,7.33,7.33,0,0,1-4.89,0,5.64,5.64,0,0,1-1.94-1.19,5.48,5.48,0,0,1-1.27-1.88A6.32,6.32,0,0,1,38.59,117.13Zm2.6,0a4.28,4.28,0,0,0,.24,1.47,3.54,3.54,0,0,0,.71,1.15,3.13,3.13,0,0,0,1.12.76,4,4,0,0,0,2.89,0,3.1,3.1,0,0,0,1.11-.76A3.4,3.4,0,0,0,48,118.6a4.56,4.56,0,0,0,0-2.92,3.35,3.35,0,0,0-.72-1.16,3.1,3.1,0,0,0-1.11-.76,4,4,0,0,0-2.89,0,3.13,3.13,0,0,0-1.12.76,3.48,3.48,0,0,0-.71,1.16A4.28,4.28,0,0,0,41.19,117.13Z"/><path class="cls-1" d="M52.83,111.47h3.78l2.61,7.39h0l2.62-7.39h3.76V122.8H63.14v-8.69h0l-3,8.69H58.22l-2.86-8.69h0v8.69h-2.5Z"/><path class="cls-1" d="M68.26,111.47h4.2a8.09,8.09,0,0,1,1.67.16,3.9,3.9,0,0,1,1.37.55,2.71,2.71,0,0,1,.92,1.06,3.59,3.59,0,0,1,.35,1.67,3.87,3.87,0,0,1-.32,1.66,2.85,2.85,0,0,1-.88,1.08,3.64,3.64,0,0,1-1.33.56,7.3,7.3,0,0,1-1.66.17H70.75v4.42H68.26Zm2.49,4.8h1.67a3.31,3.31,0,0,0,.64-.06,1.87,1.87,0,0,0,.56-.22,1.08,1.08,0,0,0,.4-.42,1.2,1.2,0,0,0,.16-.66,1.16,1.16,0,0,0-.2-.7,1.37,1.37,0,0,0-.52-.4,2.13,2.13,0,0,0-.69-.19c-.26,0-.5,0-.74,0H70.75Z"/><path class="cls-1" d="M78.75,111.47h2.5v9h4.62v2.31H78.75Z"/><path class="cls-1" d="M87.66,111.47h7.7v2.3h-5.2v2.12h4.91v2.3H90.16v2.3h5.49v2.31h-8Z"/><path class="cls-1" d="M100.16,113.68H96.93v-2.21h9v2.21h-3.23v9.12h-2.5Z"/><path class="cls-1" d="M107.57,111.47h7.69v2.3h-5.2v2.12H115v2.3h-4.92v2.3h5.49v2.31h-8Z"/><path class="cls-1" d="M117.87,111.47h3.75a10.85,10.85,0,0,1,2.58.3,6.11,6.11,0,0,1,2.14,1,4.75,4.75,0,0,1,1.44,1.77,5.86,5.86,0,0,1,.54,2.64,5.35,5.35,0,0,1-.52,2.42,5.15,5.15,0,0,1-1.4,1.76,6.18,6.18,0,0,1-2,1.08,7.8,7.8,0,0,1-2.42.37h-4.08Zm2.5,9h1.29a6.8,6.8,0,0,0,1.61-.17,3.33,3.33,0,0,0,1.29-.59,2.85,2.85,0,0,0,.86-1.07,3.9,3.9,0,0,0,.31-1.62,3.26,3.26,0,0,0-.31-1.45,3,3,0,0,0-.84-1,4.08,4.08,0,0,0-1.24-.6,5.71,5.71,0,0,0-1.5-.2h-1.47Z"/><path class="cls-1" d="M155.63,155.63H0V0H155.63ZM1,154.63H154.63V1H1Z"/></g></g></svg>