<svg xmlns="http://www.w3.org/2000/svg" viewBox="0 0 40.48 41.1"><defs><style>.cls-1{fill:#3f4a5a;}.cls-2{fill:#90dea9;}.cls-3{fill:#81cf9b;}.cls-4{fill:#71bf8c;}.cls-5{fill:#e6e5e5;}.cls-6{fill:#cccbca;}.cls-7{fill:#333c49;}</style></defs><g id="Layer_2" data-name="Layer 2"><g id="Layer_1-2" data-name="Layer 1"><path class="cls-1" d="M2.11,19.37l-1-.07,0-.5a19.14,19.14,0,0,1,38.18,0l0,.5-1,.07,0-.5a18.14,18.14,0,0,0-36.18,0Z"/><path class="cls-1" d="M0,18.64v3.19H3.19V18.64Zm2.19,2.19H1V19.65H2.19Z"/><path class="cls-1" d="M37.29,18.64v3.19h3.19V18.64Zm2.19,2.19H38.29V19.65h1.19Z"/><rect class="cls-1" x="18.65" width="3.19" height="3.19"/><rect class="cls-1" x="1.6" y="1.09" width="37.29" height="1"/><path class="cls-1" d="M3.19,1.59A1.6,1.6,0,1,1,1.6,0,1.59,1.59,0,0,1,3.19,1.59Z"/><path class="cls-1" d="M40.48,1.59A1.6,1.6,0,1,1,38.88,0,1.59,1.59,0,0,1,40.48,1.59Z"/><rect class="cls-2" x="15.23" y="11.86" width="3.34" height="20.13"/><rect class="cls-3" x="18.57" y="11.86" width="3.34" height="20.13"/><rect class="cls-4" x="21.91" y="11.86" width="3.34" height="20.13"/><polygon class="cls-5" points="25.25 11.86 21.91 6.08 18.57 6.07 15.24 11.86 25.25 11.86"/><polygon class="cls-6" points="25.25 11.86 21.91 11.86 20.79 6.07 21.91 6.08 25.25 11.86"/><polygon class="cls-1" points="21.91 6.08 20.24 3.19 18.57 6.07 21.91 6.08"/><rect class="cls-6" x="21.91" y="31.98" width="3.34" height="3.34"/><rect class="cls-5" x="15.23" y="31.98" width="6.67" height="3.33"/><path class="cls-7" d="M25.24,36.1v-.78H21.91v.78a5,5,0,0,1-1.47,3.54,5,5,0,0,1-1.87,1.17,5,5,0,0,0,6.67-4.71Z"/><path class="cls-1" d="M21.91,36.1v-.78H15.23v.78a5,5,0,0,0,1.47,3.54,4.92,4.92,0,0,0,1.87,1.17,5,5,0,0,0,1.87-1.17A5,5,0,0,0,21.91,36.1Z"/></g></g></svg>