<svg xmlns="http://www.w3.org/2000/svg" viewBox="0 0 136.96 48.94"><defs><style>.cls-1{fill:#e29a47;}</style></defs><g id="Layer_2" data-name="Layer 2"><g id="Layer_1-2" data-name="Layer 1"><path class="cls-1" d="M53,8c15.16-1.87,32.56,1.74,46.39,8.8,7.85,4,15,9.75,21.63,16a140.62,140.62,0,0,1,9.85,10.25c.91,1.05,3.93,6.28,5.22,5.86,4.34-1.41-9.43-17.27-11-18.85-6.72-6.69-13.83-13.08-21.8-17.62C89.93,4.83,73.8-.46,58.76,0,50,.32,41.22.49,32.58,3A54.63,54.63,0,0,0,22,7.42a60,60,0,0,0-7.11,4.37c-1.68,1.22-3.3,3.79-5,4.63,0-3.9,3-8,3.28-12,.31-4.8-2.72-2.86-4.23-.17A140.38,140.38,0,0,0,2.73,17.79C1.07,21.68-1.86,26.2,1.65,29.47c3.09,2.87,7.25,4.39,10.75,6.41,2.34,1.35,6.82,5.7,9.6,4,8.7-5.4-11.91-11.79-13.14-12.95C10,25.68,11.76,25,13.09,24c1.93-1.45,3.66-3.2,5.59-4.63a64.23,64.23,0,0,1,11.68-6.86A52,52,0,0,1,53,8C58.51,7.32,52,8,53,8Z"/></g></g></svg>