<svg xmlns="http://www.w3.org/2000/svg" viewBox="0 0 101.87 81.69"><defs><style>.cls-1{fill:#d82e2a;}.cls-2{fill:#fff;}</style></defs><g id="Layer_2" data-name="Layer 2"><g id="Layer_1-2" data-name="Layer 1"><path class="cls-1" d="M79.32,27.32c0,.06,0,.12,0,.18A40.8,40.8,0,1,0,40.82,81.69c.34,0,.71,0,1,0l60,0ZM40.82,74.4A33.56,33.56,0,1,1,74.34,40.84,33.57,33.57,0,0,1,40.82,74.4Z"/><path class="cls-1" d="M69.13,40.84A28.33,28.33,0,1,1,40.82,12.5,28.34,28.34,0,0,1,69.13,40.84Z"/><path class="cls-2" d="M18.32,33.82H28v2.94H21.51V39.7h6v2.94h-6v5.64H18.32Z"/><path class="cls-2" d="M29.49,33.82h5.6a9.43,9.43,0,0,1,2.09.22,4.89,4.89,0,0,1,1.73.71A3.62,3.62,0,0,1,40.1,36.1a4.61,4.61,0,0,1,.44,2.11,4.28,4.28,0,0,1-.8,2.61,3.6,3.6,0,0,1-2.33,1.35l3.68,6.11H37.27l-3-5.78H32.68v5.78H29.49Zm3.19,6h1.88l.9,0a3.27,3.27,0,0,0,.87-.19,1.54,1.54,0,0,0,.65-.48,1.46,1.46,0,0,0,.25-.92,1.38,1.38,0,0,0-.8-1.38,2.61,2.61,0,0,0-.79-.23,6.62,6.62,0,0,0-.88-.06H32.68Z"/><path class="cls-2" d="M42,33.82h9.82v2.94H45.21v2.7h6.27V42.4H45.21v2.94h7v2.94H42Z"/><path class="cls-2" d="M54.07,33.82H63.9v2.94H57.26v2.7h6.27V42.4H57.26v2.94h7v2.94H54.07Z"/></g></g></svg>