<svg xmlns="http://www.w3.org/2000/svg" viewBox="0 0 41.1 32.88"><defs><style>.cls-1{fill:#3f4a5a;}.cls-2{fill:#333c49;}.cls-3{fill:#cccbca;}.cls-4{fill:#fff;}</style></defs><g id="Layer_2" data-name="Layer 2"><g id="Layer_1-2" data-name="Layer 1"><path class="cls-1" d="M41.1,31.43a1.43,1.43,0,0,1-1.45,1.45H1.45a1.48,1.48,0,0,1-1-.42,1.48,1.48,0,0,1-.42-1V7.4H41.1Z"/><path class="cls-2" d="M41.1,7.4H0V1.45a1.48,1.48,0,0,1,.42-1,1.48,1.48,0,0,1,1-.42h38.2a1.48,1.48,0,0,1,1,.42,1.48,1.48,0,0,1,.42,1Z"/><rect class="cls-3" x="3.63" y="27.46" width="15.6" height="1.63"/><rect class="cls-4" x="3.63" y="24.21" width="17.22" height="1.63"/><rect class="cls-3" x="9.03" y="20.95" width="10.2" height="1.63"/><rect class="cls-4" x="3.63" y="14.45" width="10.2" height="1.63"/><rect class="cls-3" x="3.63" y="11.19" width="5.1" height="1.63"/><rect class="cls-4" x="20.85" y="27.46" width="4.8" height="1.63"/><rect class="cls-3" x="22.47" y="24.21" width="8.28" height="1.63"/><rect class="cls-4" x="20.85" y="20.95" width="4.8" height="1.63"/><rect class="cls-4" x="3.63" y="20.95" width="3.77" height="1.63"/><rect class="cls-3" x="15.45" y="14.45" width="15.3" height="1.63"/><rect class="cls-4" x="10.35" y="11.19" width="15.3" height="1.63"/><rect class="cls-3" x="27.27" y="27.46" width="10.2" height="1.63"/><rect class="cls-4" x="32.37" y="24.21" width="5.1" height="1.63"/><rect class="cls-4" x="27.27" y="20.95" width="5.1" height="1.63"/><rect class="cls-4" x="32.37" y="14.45" width="5.1" height="1.63"/><path class="cls-4" d="M4.83,3.7a1.21,1.21,0,1,1-1.2-1.21A1.21,1.21,0,0,1,4.83,3.7Z"/><path class="cls-4" d="M8.46,3.7A1.21,1.21,0,1,1,7.25,2.49,1.21,1.21,0,0,1,8.46,3.7Z"/><path class="cls-4" d="M12.09,3.7a1.21,1.21,0,1,1-1.21-1.21A1.21,1.21,0,0,1,12.09,3.7Z"/></g></g></svg>