<svg xmlns="http://www.w3.org/2000/svg" viewBox="0 0 32.5 44.53"><defs><style>.cls-1{fill:#efefef;}.cls-2{fill:#cccbca;}.cls-3{fill:#d65a38;}.cls-4{fill:#f67656;}.cls-5{fill:#d9d8d7;}.cls-6{fill:#e66847;}</style></defs><g id="Layer_2" data-name="Layer 2"><g id="Layer_1-2" data-name="Layer 1"><polygon class="cls-1" points="0 36.55 16.25 0 32.5 36.55 0 36.55"/><polygon class="cls-2" points="12.54 36.55 16.25 0 16.25 44.53 12.54 36.55"/><polygon class="cls-3" points="13.7 24.98 12.54 36.55 16.25 44.53 16.25 30.48 13.7 24.98"/><polygon class="cls-4" points="0 36.55 13.7 24.98 12.54 36.55 0 36.55"/><polygon class="cls-4" points="32.5 36.55 18.8 24.98 19.96 36.55 32.5 36.55"/><polygon class="cls-5" points="19.96 36.55 16.25 0 16.25 44.53 19.96 36.55"/><polygon class="cls-6" points="18.8 24.98 19.96 36.55 16.25 44.53 16.25 30.48 18.8 24.98"/></g></g></svg>