<svg xmlns="http://www.w3.org/2000/svg" viewBox="0 0 41.1 32.88"><defs><style>.cls-1{fill:#efefef;}.cls-2{fill:#d9d8d7;}.cls-3{fill:#d65a38;}.cls-4{fill:#f5b947;}.cls-5{fill:#71bf8c;}.cls-6{fill:#3f4a5a;}.cls-7{fill:#f8c963;}.cls-8{fill:#cccbca;}.cls-9{fill:#f67656;}.cls-10{fill:#e66847;}.cls-11{fill:#e6e5e5;}</style></defs><g id="Layer_2" data-name="Layer 2"><g id="Layer_1-2" data-name="Layer 1"><path class="cls-1" d="M41.1,31.43a1.43,1.43,0,0,1-1.45,1.45H1.45a1.48,1.48,0,0,1-1-.42,1.48,1.48,0,0,1-.42-1V7.4H41.1Z"/><path class="cls-2" d="M41.1,7.4H0V1.45a1.48,1.48,0,0,1,.42-1,1.48,1.48,0,0,1,1-.42h38.2a1.48,1.48,0,0,1,1,.42,1.48,1.48,0,0,1,.42,1Z"/><path class="cls-3" d="M4.84,3.7A1.21,1.21,0,1,1,3.63,2.49,1.21,1.21,0,0,1,4.84,3.7Z"/><path class="cls-4" d="M8.46,3.7A1.21,1.21,0,1,1,7.25,2.49,1.21,1.21,0,0,1,8.46,3.7Z"/><path class="cls-5" d="M12.09,3.7a1.21,1.21,0,1,1-1.21-1.21A1.21,1.21,0,0,1,12.09,3.7Z"/><polygon class="cls-6" points="25.24 12.75 24.71 12.75 24.71 11.69 25.76 11.69 25.76 12.75 25.24 12.75"/><path class="cls-6" d="M23.53,12.75H22.34V11.69h1.19Zm-2.38,0H20V11.69h1.18Zm-2.37,0H17.6V11.69h1.18Z"/><rect class="cls-6" x="15.36" y="11.69" width="1.05" height="1.07"/><path class="cls-6" d="M16.41,19.84H15.36V18.66h1.05Zm0-2.36H15.36V16.3h1.05Zm0-2.36H15.36V13.94h1.05Z"/><rect class="cls-6" x="15.36" y="21.02" width="1.05" height="1.07"/><rect class="cls-6" x="24.71" y="21.02" width="1.05" height="1.07"/><path class="cls-6" d="M25.76,19.84H24.71V18.66h1.05Zm0-2.36H24.71V16.3h1.05Zm0-2.36H24.71V13.94h1.05Z"/><rect class="cls-7" x="3.15" y="11.69" width="10.4" height="10.4"/><rect class="cls-7" x="27.57" y="11.69" width="10.4" height="10.4"/><rect class="cls-8" x="3.13" y="26.96" width="10.4" height="1.63"/><rect class="cls-8" x="3.13" y="23.71" width="10.4" height="1.63"/><rect class="cls-8" x="27.57" y="26.96" width="10.4" height="1.63"/><rect class="cls-8" x="27.57" y="23.71" width="10.4" height="1.63"/><rect class="cls-9" x="17.56" y="22.06" width="1.99" height="10.82"/><rect class="cls-10" x="19.55" y="22.06" width="1.99" height="10.82"/><rect class="cls-3" x="21.55" y="22.06" width="1.99" height="10.82"/><polygon class="cls-11" points="23.54 22.06 21.54 18.61 19.55 18.61 17.56 22.06 23.54 22.06"/><polygon class="cls-8" points="23.54 22.06 21.55 22.06 20.88 18.61 21.54 18.61 23.54 22.06"/><polygon class="cls-6" points="21.54 18.61 20.55 16.89 19.55 18.61 21.54 18.61"/></g></g></svg>