<svg xmlns="http://www.w3.org/2000/svg" viewBox="0 0 34.79 44.53"><defs><style>.cls-1{fill:#d9d8d7;}.cls-2{fill:#333c49;}.cls-3{fill:#3f4a5a;}.cls-4{fill:#e6e5e5;}</style></defs><g id="Layer_2" data-name="Layer 2"><g id="Layer_1-2" data-name="Layer 1"><path class="cls-1" d="M17.4,21A1.43,1.43,0,0,1,16,19.6V6.71a.39.39,0,0,0-.11-.27.39.39,0,0,0-.55,0,.36.36,0,0,0-.12.27v9.85a1.42,1.42,0,0,1-.42,1,1.46,1.46,0,0,1-2,0,1.41,1.41,0,0,1-.41-1V10.73a.36.36,0,0,0-.12-.27.39.39,0,0,0-.55,0,.39.39,0,0,0-.11.27V13.3a1.4,1.4,0,0,1-.42,1,1.43,1.43,0,0,1-2.44-1A.39.39,0,0,0,8.59,13a.39.39,0,0,0-.27-.11H0v-1H8.32a1.46,1.46,0,0,1,1,.41,1.42,1.42,0,0,1,.41,1,.36.36,0,0,0,.12.27.39.39,0,0,0,.55,0,.39.39,0,0,0,.11-.27V10.73a1.42,1.42,0,0,1,.42-1,1.46,1.46,0,0,1,2,0,1.42,1.42,0,0,1,.42,1v5.83a.39.39,0,0,0,.11.27.39.39,0,0,0,.55,0,.39.39,0,0,0,.11-.27V6.71a1.42,1.42,0,0,1,.42-1,1.46,1.46,0,0,1,2,0,1.42,1.42,0,0,1,.42,1V19.6a.43.43,0,0,0,.11.28.41.41,0,0,0,.55,0,.43.43,0,0,0,.11-.28V12.16a1.42,1.42,0,0,1,.42-1,1.46,1.46,0,0,1,2,0,1.42,1.42,0,0,1,.42,1v2.08a.43.43,0,0,0,.11.28.41.41,0,0,0,.55,0,.39.39,0,0,0,.12-.28V9.83a1.42,1.42,0,0,1,.42-1,1.46,1.46,0,0,1,2,0,1.41,1.41,0,0,1,.41,1v5.66a.36.36,0,0,0,.12.27.39.39,0,0,0,.55,0,.39.39,0,0,0,.11-.27v-2.2a1.44,1.44,0,0,1,.42-1,1.46,1.46,0,0,1,1-.41h8.31v1H26.48a.41.41,0,0,0-.28.11.39.39,0,0,0-.11.27v2.2a1.42,1.42,0,0,1-.42,1,1.47,1.47,0,0,1-2,0,1.42,1.42,0,0,1-.42-1V9.83a.39.39,0,0,0-.11-.27.39.39,0,0,0-.55,0,.39.39,0,0,0-.11.27v4.41a1.42,1.42,0,0,1-.42,1,1.46,1.46,0,0,1-2,0,1.42,1.42,0,0,1-.42-1V12.16a.39.39,0,0,0-.11-.27.39.39,0,0,0-.55,0,.39.39,0,0,0-.11.27V19.6A1.43,1.43,0,0,1,17.4,21Z"/><rect class="cls-2" x="16.13" y="26.12" width="2.54" height="3.03"/><path class="cls-3" d="M17.4,0A13.21,13.21,0,1,0,30.6,13.2,13.2,13.2,0,0,0,17.4,0Zm0,23.77A10.57,10.57,0,1,1,28,13.2,10.56,10.56,0,0,1,17.39,23.77Z"/><path class="cls-3" d="M19.89,30.35V42a2.5,2.5,0,1,1-5,0V30.35Z"/><path class="cls-4" d="M19.89,30.35h-5V30a.89.89,0,0,1,.26-.63.91.91,0,0,1,.63-.26H19a.89.89,0,0,1,.63.26.85.85,0,0,1,.26.63Z"/></g></g></svg>