<svg xmlns="http://www.w3.org/2000/svg" viewBox="0 0 42.13 37.32"><defs><style>.cls-1{fill:#cccbca;}.cls-2{fill:#e6e5e5;}.cls-3{fill:#3f4a5a;}.cls-4{fill:#fff;}.cls-5{fill:#f67656;}.cls-6{fill:#333c49;}.cls-7{fill:#81cf9b;}</style></defs><g id="Layer_2" data-name="Layer 2"><g id="Layer_1-2" data-name="Layer 1"><rect class="cls-1" x="13.72" y="30.92" width="11.44" height="5.03"/><rect class="cls-2" x="10.98" y="35.95" width="16.93" height="1.37"/><path class="cls-3" d="M0,26.34v-25A1.36,1.36,0,0,1,.4.4a1.41,1.41,0,0,1,1-.4H37.51a1.39,1.39,0,0,1,1,.4,1.36,1.36,0,0,1,.4,1v25Z"/><rect class="cls-4" x="2.52" y="2.52" width="33.85" height="21.31"/><path class="cls-5" d="M22.93,13.17a.25.25,0,0,0-.22.15.25.25,0,0,0,.05.27l2.32,2.32a.28.28,0,0,0,.17.07.24.24,0,0,0,.17-.07l2.33-2.32a.27.27,0,0,0,.05-.27.25.25,0,0,0-.22-.15Z"/><path class="cls-5" d="M16,13.17a.24.24,0,0,0,.23-.15.25.25,0,0,0-.06-.26L13.8,10.44a.21.21,0,0,0-.17-.07.23.23,0,0,0-.17.07l-2.32,2.32a.23.23,0,0,0-.05.26.23.23,0,0,0,.22.15Z"/><path class="cls-5" d="M26.42,13.17H24.09a4.65,4.65,0,0,0-7.93-3.29L14.51,8.24a7,7,0,0,1,11.91,4.93Z"/><path class="cls-5" d="M19.44,20.15a7,7,0,0,1-7-7h2.32a4.65,4.65,0,0,0,4.65,4.65,4.6,4.6,0,0,0,3.29-1.36l1.64,1.64A6.9,6.9,0,0,1,19.44,20.15Z"/><path class="cls-2" d="M38.88,29.54a1.33,1.33,0,0,1-.4,1,1.36,1.36,0,0,1-1,.41H1.37a1.37,1.37,0,0,1-1-.41,1.33,1.33,0,0,1-.4-1v-3.2H38.88Z"/><rect class="cls-3" x="30.61" y="16.14" width="11.52" height="21.18" rx="1.48"/><rect class="cls-4" x="31.44" y="19.35" width="9.85" height="14.78"/><rect class="cls-6" x="35.17" y="35.38" width="2.4" height="0.69" rx="0.3"/><path class="cls-6" d="M36.78,17.75a.41.41,0,0,1-.82,0,.41.41,0,0,1,.82,0Z"/><path class="cls-3" d="M36.52,17.75a.15.15,0,0,1-.3,0,.15.15,0,1,1,.3,0Z"/><path class="cls-7" d="M40,26.74a3.63,3.63,0,1,1-3.63-3.64A3.64,3.64,0,0,1,40,26.74Z"/><polygon class="cls-4" points="35.7 28.6 34.1 27 34.64 26.47 35.7 27.54 38.1 25.14 38.63 25.67 35.7 28.6"/></g></g></svg>