<svg xmlns="http://www.w3.org/2000/svg" viewBox="0 0 35.85 42.82"><defs><style>.cls-1{fill:#3f4a5a;}.cls-2{fill:#333c49;}.cls-3{fill:#fff;}.cls-4{fill:#90dea9;}.cls-5{fill:#e6e5e5;}</style></defs><g id="Layer_2" data-name="Layer 2"><g id="Layer_1-2" data-name="Layer 1"><path class="cls-1" d="M20.8,6.43H15.05a3.22,3.22,0,1,1,0-6.43H20.8a3.24,3.24,0,0,1,3.25,3.22A3.24,3.24,0,0,1,20.8,6.43Zm-5.75-5.2a2,2,0,0,0-2,2,2,2,0,0,0,2,2H20.8a2,2,0,0,0,2-2,2,2,0,0,0-2-2Z"/><path class="cls-2" d="M19.14,7.19H16.69V5a.58.58,0,0,1,.18-.42.62.62,0,0,1,.44-.18h1.22a.58.58,0,0,1,.43.18.69.69,0,0,1,.18.46Z"/><rect class="cls-2" x="3.86" y="11.46" width="2.45" height="1.2" transform="translate(-7.04 7.12) rotate(-45)"/><path class="cls-1" d="M6,10.33l-2.6,2.6-1.3-1.3a.6.6,0,0,1,0-.86L3.79,9a.6.6,0,0,1,.43-.18.71.71,0,0,1,.46.21Z"/><rect class="cls-2" x="30.16" y="10.82" width="1.2" height="2.45" transform="translate(0.48 25.27) rotate(-44.98)"/><path class="cls-1" d="M32.48,12.93l-2.6-2.6L31.18,9a.62.62,0,0,1,.87,0l1.73,1.73a.6.6,0,0,1,.18.43.7.7,0,0,1-.2.46Z"/><path class="cls-1" d="M35.85,24.89A17.93,17.93,0,1,1,17.92,7,17.93,17.93,0,0,1,35.85,24.89Z"/><circle class="cls-3" cx="17.92" cy="24.89" r="15.32" transform="translate(-10.42 36.62) rotate(-76.72)"/><path class="cls-4" d="M17.92,9.57V24.89H33.24A15.32,15.32,0,0,0,17.92,9.57Z"/><rect class="cls-1" x="17.54" y="10.88" width="0.77" height="1.53"/><rect class="cls-1" x="15.24" y="11.08" width="0.77" height="1.53" transform="translate(-1.83 2.91) rotate(-10.05)"/><rect class="cls-1" x="13.01" y="11.68" width="0.77" height="1.53" transform="translate(-3.45 5.34) rotate(-20.03)"/><rect class="cls-1" x="10.91" y="12.65" width="0.77" height="1.53" transform="translate(-5.2 7.45) rotate(-30.02)"/><rect class="cls-1" x="9.02" y="13.98" width="0.77" height="1.53" transform="translate(-7.27 9.49) rotate(-39.97)"/><polygon class="cls-1" points="8.11 17.16 6.94 16.18 7.43 15.59 8.61 16.57 8.11 17.16"/><rect class="cls-1" x="6.06" y="17.5" width="0.77" height="1.53" transform="matrix(0.5, -0.87, 0.87, 0.5, -12.6, 14.71)"/><rect class="cls-1" x="5.09" y="19.6" width="0.77" height="1.53" transform="translate(-15.53 18.54) rotate(-70)"/><rect class="cls-1" x="4.49" y="21.83" width="0.77" height="1.53" transform="translate(-18.22 23.45) rotate(-79.94)"/><rect class="cls-1" x="3.91" y="24.51" width="1.53" height="0.77"/><rect class="cls-1" x="4.11" y="26.81" width="1.53" height="0.77" transform="translate(-4.63 1.25) rotate(-9.96)"/><rect class="cls-1" x="4.71" y="29.04" width="1.53" height="0.77" transform="translate(-9.74 3.65) rotate(-20)"/><rect class="cls-1" x="5.68" y="31.14" width="1.53" height="0.77" transform="translate(-14.91 7.46) rotate(-30.03)"/><rect class="cls-1" x="7.01" y="33.03" width="1.53" height="0.77" transform="translate(-19.67 12.83) rotate(-40.04)"/><polygon class="cls-1" points="9.21 35.88 8.62 35.38 9.61 34.21 10.19 34.7 9.21 35.88"/><rect class="cls-1" x="10.53" y="35.98" width="1.53" height="0.77" transform="translate(-25.85 27.98) rotate(-60.02)"/><rect class="cls-1" x="12.62" y="36.96" width="1.53" height="0.77" transform="translate(-26.28 37.18) rotate(-70.04)"/><rect class="cls-1" x="14.86" y="37.56" width="1.53" height="0.77" transform="translate(-24.48 46.64) rotate(-79.86)"/><rect class="cls-1" x="17.16" y="37.76" width="1.53" height="0.77" transform="translate(-20.25 56) rotate(-89.91)"/><rect class="cls-1" x="19.84" y="37.18" width="0.77" height="1.53" transform="translate(-6.27 4.08) rotate(-9.98)"/><rect class="cls-1" x="22.07" y="36.58" width="0.77" height="1.53" transform="translate(-11.41 9.92) rotate(-19.98)"/><rect class="cls-1" x="24.16" y="35.6" width="0.77" height="1.53" transform="translate(-14.9 17.15) rotate(-30)"/><polygon class="cls-1" points="26.64 35.88 25.65 34.7 26.24 34.21 27.23 35.38 26.64 35.88"/><rect class="cls-1" x="27.69" y="32.64" width="0.77" height="1.53" transform="translate(-15.57 33.41) rotate(-49.96)"/><rect class="cls-1" x="29.02" y="30.75" width="0.77" height="1.53" transform="translate(-12.6 41.19) rotate(-59.96)"/><rect class="cls-1" x="29.99" y="28.66" width="0.77" height="1.53" transform="translate(-7.67 47.88) rotate(-69.97)"/><rect class="cls-1" x="30.59" y="26.43" width="0.77" height="1.53" transform="translate(-1.21 52.95) rotate(-79.96)"/><rect class="cls-1" x="30.41" y="24.51" width="1.53" height="0.76"/><rect class="cls-1" x="30.21" y="22.21" width="1.53" height="0.77" transform="translate(-3.44 5.7) rotate(-9.96)"/><rect class="cls-1" x="29.61" y="19.98" width="1.53" height="0.77" transform="translate(-5.13 11.62) rotate(-20.01)"/><rect class="cls-1" x="28.63" y="17.88" width="1.53" height="0.76" transform="translate(-5.19 17.11) rotate(-29.93)"/><rect class="cls-1" x="27.31" y="15.99" width="1.53" height="0.77" transform="matrix(0.77, -0.64, 0.64, 0.77, -3.96, 21.85)"/><rect class="cls-1" x="25.67" y="14.36" width="1.53" height="0.77" transform="translate(-1.85 25.51) rotate(-49.98)"/><rect class="cls-1" x="23.78" y="13.03" width="1.53" height="0.77" transform="translate(0.66 27.98) rotate(-60.02)"/><rect class="cls-1" x="21.69" y="12.06" width="1.53" height="0.77" transform="translate(3.06 29.25) rotate(-69.91)"/><rect class="cls-1" x="19.46" y="11.46" width="1.53" height="0.77" transform="translate(5 29.66) rotate(-79.84)"/><path class="cls-3" d="M19.76,24.89a1.84,1.84,0,1,1-1.84-1.84A1.84,1.84,0,0,1,19.76,24.89Z"/><path class="cls-1" d="M17.92,27.34a2.45,2.45,0,1,1,2.45-2.45A2.45,2.45,0,0,1,17.92,27.34Zm0-3.67a1.23,1.23,0,1,0,1.23,1.22A1.22,1.22,0,0,0,17.92,23.67Z"/><rect class="cls-1" x="13.94" y="24.28" width="2.14" height="1.23"/><rect class="cls-1" x="19.76" y="24.28" width="7.05" height="1.23"/><path class="cls-5" d="M17.92,34.81a2.45,2.45,0,1,1,2.45-2.45A2.45,2.45,0,0,1,17.92,34.81Zm0-3.68a1.23,1.23,0,1,0,1.23,1.23A1.23,1.23,0,0,0,17.92,31.13Z"/></g></g></svg>