<svg xmlns="http://www.w3.org/2000/svg" xmlns:xlink="http://www.w3.org/1999/xlink" viewBox="0 0 614.3 385.68"><defs><style>.cls-1{fill:#b2b8fa;}.cls-2{fill:#e0e3fd;}.cls-3{fill:#d1d4fc;}.cls-4{fill:#f0f1fe;}.cls-5{fill:#c1c6fb;}.cls-6{fill:#ffcebd;}.cls-7{fill:#536dfe;}.cls-41,.cls-8{fill:#fff;}.cls-10,.cls-9{fill:#191c3c;}.cls-10,.cls-16{opacity:0.3;}.cls-11{fill:#ff5722;}.cls-12{opacity:0.14;}.cls-13{opacity:0.27;}.cls-14{fill:#bfbfbf;}.cls-15{fill:#4d5068;}.cls-17,.cls-32,.cls-34{fill:#231f20;}.cls-18{fill:#3e52bf;}.cls-19{fill:#fec55e;}.cls-20{fill:#5c74fe;}.cls-21{fill:#5361f0;}.cls-22{fill:#f7f7f7;}.cls-23{fill:#717386;}.cls-24{opacity:0.29;}.cls-25{fill:#272834;}.cls-26{fill:#3a3c4e;}.cls-27{fill:url(#linear-gradient);}.cls-28{opacity:0.2;}.cls-29{fill:#474963;}.cls-30{fill:#75778a;}.cls-31{fill:url(#linear-gradient-2);}.cls-32,.cls-41{opacity:0.1;}.cls-33{fill:url(#linear-gradient-3);}.cls-34{opacity:0.21;}.cls-35{fill:url(#linear-gradient-4);}.cls-36{fill:#4c5159;}.cls-37{fill:#393d43;}.cls-38{fill:#e8eafd;}.cls-39{fill:#dcdefd;}.cls-40{fill:url(#linear-gradient-5);}</style><linearGradient id="linear-gradient" x1="455.65" y1="259.44" x2="477.9" y2="259.44" gradientUnits="userSpaceOnUse"><stop offset="0" stop-color="#e040fb"/><stop offset="0.01" stop-color="#e040f9"/><stop offset="0.37" stop-color="#ed4da4"/><stop offset="0.67" stop-color="#f65666"/><stop offset="0.89" stop-color="#fc5c40"/><stop offset="1" stop-color="#fe5e31"/></linearGradient><linearGradient id="linear-gradient-2" x1="200.04" y1="180.31" x2="239.08" y2="180.31" gradientUnits="userSpaceOnUse"><stop offset="0" stop-color="#fec55e"/><stop offset="1" stop-color="#ff5722"/></linearGradient><linearGradient id="linear-gradient-3" x1="196.14" y1="139.95" x2="239.51" y2="139.95" xlink:href="#linear-gradient-2"/><linearGradient id="linear-gradient-4" x1="384.04" y1="271.68" x2="427.8" y2="271.68" xlink:href="#linear-gradient-2"/><linearGradient id="linear-gradient-5" x1="495.34" y1="54.62" x2="536.72" y2="54.62" xlink:href="#linear-gradient-2"/></defs><g id="Layer_2" data-name="Layer 2"><g id="Layer_1-2" data-name="Layer 1"><rect class="cls-1" x="101.95" y="91.82" width="38.46" height="47.15"/><rect class="cls-2" x="109.69" y="101.31" width="22.99" height="28.18"/><rect class="cls-3" x="113.81" y="106.36" width="14.75" height="18.08"/><rect class="cls-1" x="195.05" y="91.82" width="38.46" height="47.15"/><rect class="cls-2" x="202.79" y="101.31" width="22.99" height="28.18"/><rect class="cls-3" x="206.91" y="106.36" width="14.75" height="18.08"/><rect class="cls-3" x="148.5" y="91.82" width="38.46" height="47.15"/><rect class="cls-1" x="156.24" y="101.31" width="22.99" height="28.18"/><rect class="cls-4" x="160.36" y="106.36" width="14.75" height="18.08"/><rect class="cls-1" x="481.94" y="143.65" width="131.73" height="6.74"/><rect class="cls-5" x="481.94" y="143.65" width="131.73" height="2.84"/><rect class="cls-5" x="497.93" y="149.8" width="7.39" height="4.73"/><rect class="cls-1" x="589.26" y="149.8" width="7.39" height="4.73"/><rect class="cls-1" x="587.29" y="98.59" width="14.02" height="45.06"/><rect class="cls-5" x="587.29" y="104.8" width="14.02" height="2.24"/><rect class="cls-5" x="587.29" y="131.18" width="14.02" height="2.24"/><rect class="cls-5" x="587.29" y="134.63" width="14.02" height="2.24"/><rect class="cls-5" x="587.29" y="108.61" width="14.02" height="2.24"/><rect class="cls-4" x="566.64" y="96.59" width="9.19" height="47.06"/><rect class="cls-1" x="566.64" y="103.07" width="9.19" height="2.34"/><rect class="cls-1" x="566.64" y="130.63" width="9.19" height="2.34"/><rect class="cls-1" x="566.64" y="134.23" width="9.19" height="2.34"/><rect class="cls-1" x="566.64" y="107.05" width="9.19" height="2.34"/><rect class="cls-3" x="581.67" y="96.59" width="5.99" height="47.06"/><rect class="cls-1" x="581.67" y="103.07" width="5.99" height="2.34"/><rect class="cls-1" x="581.67" y="130.63" width="5.99" height="2.34"/><rect class="cls-1" x="581.67" y="134.23" width="5.99" height="2.34"/><rect class="cls-1" x="581.67" y="107.05" width="5.99" height="2.34"/><rect class="cls-5" x="575.47" y="105.41" width="6.06" height="38.24"/><rect class="cls-4" x="575.47" y="110.68" width="6.06" height="1.9"/><rect class="cls-4" x="575.47" y="133.07" width="6.06" height="1.9"/><rect class="cls-4" x="575.47" y="136" width="6.06" height="1.9"/><rect class="cls-4" x="575.47" y="113.91" width="6.06" height="1.9"/><rect class="cls-1" x="501.79" y="140.7" width="2.07" height="3.05"/><rect class="cls-1" x="542.4" y="140.7" width="2.07" height="3.05"/><rect class="cls-1" x="498.2" y="118.94" width="49.49" height="22.52"/><rect class="cls-2" x="500.92" y="121.71" width="18.68" height="17.14"/><rect class="cls-4" x="507.02" y="127.3" width="6.48" height="5.95"/><rect class="cls-1" x="509.88" y="122.58" width="0.38" height="1.79"/><rect class="cls-1" x="513.31" y="123.4" width="0.38" height="1.79" transform="translate(130.97 -240.13) rotate(30)"/><rect class="cls-1" x="515.87" y="125.82" width="0.38" height="1.79" transform="translate(368.34 -383.73) rotate(60.06)"/><rect class="cls-1" x="516.87" y="129.21" width="0.38" height="1.79" transform="translate(648.27 -386.68) rotate(90.12)"/><rect class="cls-1" x="516.05" y="132.63" width="0.38" height="1.79" transform="translate(890.95 -245.84) rotate(120.14)"/><rect class="cls-1" x="513.62" y="135.19" width="0.38" height="1.79" transform="translate(1027.3 -1.16) rotate(150.2)"/><rect class="cls-1" x="510.23" y="136.19" width="0.38" height="1.79" transform="translate(1020.25 276.35) rotate(-179.75)"/><rect class="cls-1" x="506.8" y="135.35" width="0.38" height="1.79" transform="translate(876.2 509.47) rotate(-149.73)"/><rect class="cls-1" x="504.25" y="132.92" width="0.38" height="1.79" transform="translate(638.27 638.25) rotate(-119.71)"/><rect class="cls-1" x="503.27" y="129.53" width="0.38" height="1.79" transform="translate(369.76 633.02) rotate(-89.63)"/><rect class="cls-1" x="504.1" y="126.11" width="0.38" height="1.79" transform="matrix(0.51, -0.86, 0.86, 0.51, 139.64, 497.76)"/><rect class="cls-1" x="506.55" y="123.56" width="0.38" height="1.79" transform="translate(4.64 266.47) rotate(-29.59)"/><rect class="cls-1" x="510.26" y="129.78" width="4.72" height="0.83"/><rect class="cls-1" x="508.07" y="128.01" width="4.72" height="0.42" transform="translate(382.21 638.64) rotate(-90)"/><rect class="cls-5" x="522.51" y="122.08" width="22.34" height="0.88"/><rect class="cls-5" x="522.51" y="124.29" width="22.34" height="0.88"/><rect class="cls-5" x="522.51" y="126.5" width="22.34" height="0.88"/><rect class="cls-5" x="522.51" y="128.71" width="22.34" height="0.88"/><rect class="cls-5" x="522.51" y="130.91" width="22.34" height="0.88"/><rect class="cls-5" x="522.51" y="133.12" width="22.34" height="0.88"/><rect class="cls-5" x="522.51" y="135.33" width="22.34" height="0.88"/><rect class="cls-5" x="522.51" y="137.54" width="22.34" height="0.88"/><rect class="cls-3" x="245.77" y="90.57" width="213.22" height="114.91"/><rect class="cls-5" x="240.59" y="198.97" width="223.59" height="9.68"/><polygon class="cls-1" points="281.73 178.56 280.75 177.28 308.52 156.23 329.79 168.91 369.91 128.37 387.74 150.17 424.57 123.3 425.51 124.61 387.45 152.37 369.8 130.78 330.05 170.94 308.63 158.17 281.73 178.56"/><rect class="cls-1" x="279.61" y="105.2" width="1.61" height="82.76"/><rect class="cls-1" x="265.94" y="177.88" width="181.73" height="1.61"/><path class="cls-1" d="M429.77,123.16a3.71,3.71,0,1,1-3.71-3.71A3.71,3.71,0,0,1,429.77,123.16Z"/><path class="cls-1" d="M373.44,129.8a3.71,3.71,0,1,1-3.7-3.71A3.7,3.7,0,0,1,373.44,129.8Z"/><path class="cls-1" d="M312.19,157.62a3.71,3.71,0,1,1-3.7-3.7A3.71,3.71,0,0,1,312.19,157.62Z"/><path class="cls-1" d="M333.57,169.21a3.71,3.71,0,1,1-3.71-3.7A3.71,3.71,0,0,1,333.57,169.21Z"/><path class="cls-1" d="M391,150.64a3.71,3.71,0,1,1-3.7-3.71A3.7,3.7,0,0,1,391,150.64Z"/><polygon class="cls-6" points="513.16 150.34 543.32 142.78 537.23 129.26 537.38 117.09 527.7 96.42 518.93 113.37 515.76 132.68 513.16 150.34"/><path class="cls-6" d="M480.38,159.92h-.79l-21.76-29-2.39-6.38a4.21,4.21,0,0,0-3.95-2.74h-3.63l-1.57.92-16.52-.92h0a3.26,3.26,0,0,0,3.14,3.26l8.4.31.24,6.13a5.69,5.69,0,0,0,3.55,5.05l5.65,2.29,2.23,2,21.09,34.67a2.54,2.54,0,0,0,3,1.08l7.9-2.75L481.56,160Z"/><rect class="cls-6" x="480.12" y="357.65" width="13.56" height="10.6" transform="translate(973.8 725.91) rotate(180)"/><path class="cls-7" d="M499,214.76l-18.83,83.36v62.52h13.56s11.24-43.37,5.51-61.39l22.47-52Z"/><polygon class="cls-8" points="497.22 360.64 497.22 376.47 452.85 376.47 452.85 370.96 465.57 368.42 475.03 357.54 477.01 357.54 480.12 362.62 493.68 363.05 495.66 360.64 497.22 360.64"/><rect class="cls-9" x="473.58" y="359.2" width="1.69" height="3.72" transform="translate(-114.3 455.11) rotate(-46.35)"/><rect class="cls-9" x="471.35" y="362.02" width="1.7" height="2.76" transform="translate(-123.14 387.9) rotate(-39.94)"/><polygon class="cls-9" points="470.25 366.77 471.42 365.54 469.64 363.85 468.48 365.07 470.25 366.77"/><rect class="cls-6" x="525.16" y="360.64" width="10.07" height="10.6" transform="translate(1060.38 731.89) rotate(180)"/><polygon class="cls-10" points="497.44 221.43 503.89 221.83 521.66 247.26 512.23 269.08 507.04 244.49 495.8 228.71 497.44 221.43"/><path class="cls-7" d="M541.16,224l-.85,71.84c7.63,15.69-5.09,64.85-5.09,64.85h-11l-1.48-58-12.29-58.16L493.68,221Z"/><polygon class="cls-8" points="509.65 376.23 527.22 376.23 537.34 371.52 536.63 363.05 535.22 365.17 532.68 365.31 529.57 360.64 521.09 360.64 509.65 376.23"/><polygon class="cls-9" points="537.34 371.52 537.34 374.77 528.02 380 509.65 380 509.65 376.23 527.22 376.23 537.34 371.52"/><rect class="cls-9" x="519.43" y="363.61" width="5.72" height="1.7"/><rect class="cls-9" x="518.21" y="366.58" width="5.72" height="1.7"/><rect class="cls-9" x="516.31" y="369.55" width="5.72" height="1.7"/><rect class="cls-9" x="452.85" y="376.23" width="44.36" height="3.77" transform="translate(950.07 756.23) rotate(180)"/><path class="cls-8" d="M515.76,132.68l-19.83,11.47a5.83,5.83,0,0,0-1,.75l-14.79,13.35,3,19,37.39-22.23Z"/><polygon class="cls-8" points="551.1 153.27 543.32 226.03 489.87 226.03 504.07 141.08 515.76 132.68 522.32 144.1 537.23 129.26 551.1 153.27"/><path class="cls-11" d="M530.76,107.24c.81,1.39.75,3.4.85,4.85.19,2.64.12,5.45.88,8a21.36,21.36,0,0,0,1.59,3.64,1.39,1.39,0,0,0,.4.52,1,1,0,0,0,.51.11,3.09,3.09,0,0,0,2.67-2.22,13.31,13.31,0,0,0,.46-3.68c.15-2,1.31-4,1.6-6.11.1-.72.08-1.45.15-2.18a42.84,42.84,0,0,1,1.19-5.1c.77-3.38-.62-6.24-2.25-9.14-.82-1.45-1.58-3-2.54-4.4-1.22-1.74-3-1.7-4.66-2.78-1.29-.83-2.15-2.41-3.66-2.68-1.87-.34-3.77,1.57-5.52.84s-3.5-1.76-5.5-.64a6.36,6.36,0,0,1-2.07,1.06,7.12,7.12,0,0,1-1.58-.16,8,8,0,0,0-3.07.53c-.94.3-2,.71-2.33,1.64-.19.56-.06,1.2-.32,1.74a2.29,2.29,0,0,1-1.88,1,5.84,5.84,0,0,0-2.17.44c-1,.6-1.34,3.67-.85,4.65a3.3,3.3,0,0,0,3.19,1.48c1.23-.07,2.43-.49,3.67-.57a3.38,3.38,0,0,1,3.24,1.38,4.18,4.18,0,0,1,.37,1.08q.76,3,1.51,6.09c.47,1.9,1,3.91,2.41,5.26a5.78,5.78,0,0,0,5.64,1.21,7,7,0,0,0,4.22-4,8,8,0,0,1,1-2.23,1.61,1.61,0,0,1,2.17-.41A2.93,2.93,0,0,1,530.76,107.24Z"/><path class="cls-6" d="M506.13,98.91v9.75l1.28,1.27s-2.76,3.81-2.55,7.84h2.55v4.82a7.46,7.46,0,0,0,7.47,7.47h1a10.44,10.44,0,0,0,10.44-10.44v-4.18s4-1.91,4-5.51c0,0,.64-5.51-2.75-5.3,0,0-4.45-.21-4.66,3.39l-4.86.42v-2.73a3.65,3.65,0,0,0-3.41-3.64h0l-.21-5.71S508.68,95.3,506.13,98.91Z"/><path class="cls-11" d="M507.83,124.88c.74-.42,1.06.7,1.13,1.21s.23,1.12.73,1.24a1.34,1.34,0,0,0,.63,0,5.15,5.15,0,0,0,1-.32,4.38,4.38,0,0,0,.7-.45c.83-.6,1.54-1.21,1.49-2.29a2.56,2.56,0,0,0-1.4-2.56,5.94,5.94,0,0,0-2.81-.27c-.72.06-1.76.43-2.28-.3a1.54,1.54,0,0,1,0-1.34,2.28,2.28,0,0,1,.32-.71c.46-.59,2.63-.4,3.37-.45a14.38,14.38,0,0,1,2.62-.08,3.21,3.21,0,0,1,2.16,1.09c.45.55.69,1.35,1.36,1.6a1.82,1.82,0,0,0,.87,0,2.37,2.37,0,0,0,1.69-1c.51-.83.18-1.89-.08-2.82-.59-2.09-.34-4.27-.9-6.3-.31-1.11-.89-3.83,0-4.79h4.94c-.51,2.3-1.1,6.38-.19,8.56,1.57,3.79,4.72,9.2,1,12.77a11.93,11.93,0,0,1-3.55,2.08,9.17,9.17,0,0,1-2.5.82c-1,.13-2-.08-3,0-1.27,0-2.54.51-3.8.27A7.07,7.07,0,0,1,509,129.8a1.36,1.36,0,0,1-.41-.34,4.07,4.07,0,0,1-.25-.72,2.83,2.83,0,0,0-.29-.47,3.78,3.78,0,0,1-.63-2.31C507.49,125.35,507.57,125,507.83,124.88Z"/><g class="cls-12"><path class="cls-9" d="M497.67,319.32a4.75,4.75,0,0,0,1.17-2.56c0-.51-1.65-3.27-1.47-3.49a1.67,1.67,0,0,1,1.19-.59c-.13-.62-.8-.94-1.31-1.33s-.9-1.19-.42-1.61c.65-.49,1.44-.31,2.13-.42a50.6,50.6,0,0,0-.92-5.18,10.6,10.6,0,0,0-1.67-4.38c-.85-1.13-2.37-1.29-2.94-2.6a.58.58,0,0,1-.08-.36c.06-.31.45-.4.75-.41a30.37,30.37,0,0,0,3.82-.23c.71-.13,2.47-1.15,2.79-.54s-1.26,3-1.52,3.63c1.84,5.78,1.79,12.17,1.52,18.16-.17,3.62-.51,7.23-.94,10.83-.38,3.19-.45,7.08-1.52,10.06a9.09,9.09,0,0,0-.74-4.24,18.2,18.2,0,0,0-2.51-3.77,2.6,2.6,0,0,1-.42-.67,2.14,2.14,0,0,1-.1-.71,9.41,9.41,0,0,1,.11-1.76c1.44.8,2.86,1.41,4.35,2.06-.23-2-.44-4.53-1.8-6.13-.35-.41-.8-.84-.78-1.38a1.87,1.87,0,0,1,.19-.65A12,12,0,0,1,497.67,319.32Zm14.23-49.48c.49-1.12-2.25-.12-2.41,0a5.66,5.66,0,0,0-1.91,2.68,45.43,45.43,0,0,0-1.11,5.05,13.7,13.7,0,0,1-3.61,6.39c.78,0,1.24,1,1.05,1.74a5.52,5.52,0,0,1-1.28,1.94c-.88,1.08-1.27,3.06-2.21,3.95-.46.43-1.16.43-1.69.64.21.31,2.47,2.38,2.4,2.56C501.13,294.78,511.9,269.85,511.9,269.84Z"/></g><g class="cls-13"><path class="cls-14" d="M544.74,212.71l-.29,2.69a.87.87,0,0,1-.18-.91A16.22,16.22,0,0,0,544.74,212.71Z"/><path class="cls-14" d="M545,181.37c1.61-.41-1.56-1.72-2.73-3.07-.17-.44,3.5-.52,3.87-.75-.22-1.62,0-3.07-.21-4.69-.85-.44-4-.78-3.16-1.06,4-1.35.72-18.85-.46-21.46-.55-1.22,4.1,6.37,4.66,7.6,1.43,3.16,1.85,6.37,2.62,9.61l-.48,4.48-.58.11c.2.17.37.33.52.48l-1.12,10.5c-.32,0-.08,1-.39,1,.3.44,0,0,.23.45l-2.63,24.61c-1.8,10.39-2.06-6.69-1.8-9.63.51-6,3.63-13-.57-14C541.79,185.35,544.09,181.48,545,181.37Z"/></g><polygon class="cls-6" points="565.11 177.28 566.16 189.4 555.36 240.27 556.63 246.84 555.36 255.53 552.23 258.28 547.94 259.55 543.32 261.25 541.37 261.25 537.23 259.55 539.88 256.16 540.95 250.76 539.25 253.62 536.03 254.47 540.1 244.49 546.75 237.59 551.1 193.53 549.42 177.28 565.11 177.28"/><polygon class="cls-10" points="565.4 180.67 549.77 180.67 549.42 177.28 565.11 177.28 565.4 180.67"/><path class="cls-8" d="M537.23,129.26l24.22,13.82a9,9,0,0,1,4.52,7.39l1.25,26.81H547.94l-1.19-18.4Z"/><path class="cls-11" d="M61.87,230.42C82.44,243.16,76,273,75.76,293.54q-.45,34.07-.92,68.11a1.07,1.07,0,0,0,2.13,0q.54-40.69,1.1-81.4c.25-19.15,3.53-40.11-15.13-51.67-1.17-.72-2.24,1.12-1.07,1.84Z"/><path class="cls-11" d="M73.29,240.78A26.37,26.37,0,0,0,70,235.14c-2.14-2.56-5.12-4.25-8-5.88l-.43.23a25.5,25.5,0,0,0-1.68,13.78c.87,4.61,3.69,9,7.91,11,3.1,1.5,6.76,1.69,9.66,3.55C78.21,252,75.83,246.14,73.29,240.78Z"/><path class="cls-11" d="M94.84,204.64c-20.43,8.11-16,39.11-16.86,56.58-1.39,29.62-2.15,59.25-2,88.91a1.06,1.06,0,0,0,2.12,0q-.24-37,1.28-74c.46-11.14,1-22.27,1.55-33.4.61-12.92,0-30.36,14.43-36.08,1.25-.49.71-2.55-.57-2.05Z"/><path class="cls-11" d="M80.86,240.3c0-.1-.07-.21-.1-.31a8.61,8.61,0,0,0-.83,1.56Z"/><path class="cls-11" d="M96,206.45a1.43,1.43,0,0,0-.54-.73,1.38,1.38,0,0,0-1,0c-6.65,2-11.9,7.61-14.17,14.16A30.77,30.77,0,0,0,80.76,240c2.54-4,7.69-6,11.31-9.34C98.48,224.74,99.47,214.45,96,206.45Z"/><path class="cls-15" d="M59.85,350.15H95.07a0,0,0,0,1,0,0v23.67a11.85,11.85,0,0,1-11.85,11.85H71.71a11.85,11.85,0,0,1-11.85-11.85V350.15A0,0,0,0,1,59.85,350.15Z"/><path class="cls-11" d="M78.39,308c-.32-8.21-.69-17.93,5.4-24.36,4.76-5,17-8.49,23.81-8.66a1.07,1.07,0,0,0,0-2.13c-5.22.14-10.66,2.2-15.57,3.87-3.62,1.23-7,2.59-9.74,5.41-6.55,6.87-6.37,17.06-6,25.87.06,1.36,2.18,1.37,2.13,0Z"/><path class="cls-11" d="M109.89,272a.66.66,0,0,0-.52-.15l-7.7.06a27.21,27.21,0,0,0-6.63.61c-4.34,1.12-7.86,4.33-10.61,7.88l-.8.12c4,1.28,8,3,12.13,3.4s8.82-.63,11.44-3.92c1.67-2.1,2.32-4.81,2.76-7.45A.62.62,0,0,0,109.89,272Z"/><g class="cls-16"><path class="cls-17" d="M71,350.12H59.85V374.2a11.3,11.3,0,0,0,5.09,9.44s0-.06,0-.09l8.14-30.71A2.17,2.17,0,0,0,71,350.12Z"/><path class="cls-17" d="M75.62,303.66q-.09,7.32-.19,14.65a41.83,41.83,0,0,0,2.9-3.73c.06-3.66.13-7.31.21-11A21.93,21.93,0,0,0,75.62,303.66Z"/></g><path class="cls-7" d="M53.18,288.44c-.2-3.05-.43-6.19-1.81-8.92A48.61,48.61,0,0,0,42,322.12l2.84,2.64C49.51,320.35,52,314,53,307.69S53.6,294.85,53.18,288.44Z"/><path class="cls-7" d="M79,305a1.46,1.46,0,0,0-.83-.39A21.63,21.63,0,0,0,51.86,325.7L53.77,328c4,1.1,8.25-1,11.6-3.46a41.32,41.32,0,0,0,13.67-18C79.23,306,79.4,305.38,79,305Z"/><path class="cls-7" d="M16.43,304.62c-4.28-3.49-9.27-6.89-14.79-6.56a1.77,1.77,0,0,0-1.52.69c-.61,1.15,1.32,2,1.7,3.24a4.6,4.6,0,0,1-.29,2.21,7.22,7.22,0,0,0,.67,4c5,12.66,19.32,20.92,32.81,19l1.68-2.64A148.63,148.63,0,0,0,16.43,304.62Z"/><path class="cls-7" d="M32.24,325.37c9.62,9.14,10.86,22.69,9.2,35.2-.36,2.72,3.92,2.69,4.28,0,1.8-13.63-.06-28.35-10.45-38.23-2-1.89-5,1.13-3,3Z"/><path class="cls-7" d="M41.64,321c2,12-.56,24.17.72,36.25.29,2.71,4.57,2.74,4.28,0-1.32-12.47,1.23-24.95-.88-37.39-.45-2.71-4.58-1.56-4.12,1.14Z"/><path class="cls-7" d="M54.18,320.18c-3.53,5.3-7.1,11.08-8.75,17.29-1.79,6.74-1.28,14.33-1.59,21.25-.12,2.75,4.16,2.75,4.29,0,.29-6.53-.19-13.77,1.43-20.11,1.48-5.79,5-11.33,8.32-16.27,1.53-2.3-2.18-4.44-3.7-2.16Z"/><path class="cls-15" d="M59,385.68H35.11A2.16,2.16,0,0,1,33,384.07l-8.14-30.71a2.16,2.16,0,0,1,2.1-2.71H67.14a2.16,2.16,0,0,1,2.09,2.71L61.1,384.07A2.16,2.16,0,0,1,59,385.68Z"/><path class="cls-18" d="M50.29,284.15c-3.19,12-3.21,24.5-6.11,36.55a.31.31,0,0,0,.6.16c2.89-12.05,2.92-24.55,6.1-36.55a.31.31,0,0,0-.59-.16Z"/><path class="cls-18" d="M54.22,324.3a40.92,40.92,0,0,1,21.21-16.78c.37-.13.21-.73-.16-.6A41.6,41.6,0,0,0,53.69,324c-.22.34.32.65.53.31Z"/><path class="cls-18" d="M3.07,301.89c1.93,4.85,5.32,8.22,9.55,11.19,6.1,4.27,14,6.38,19.55,11.17.35.31.86-.2.51-.51-3.89-3.34-8.85-4.71-13.25-7.23C13.1,312.9,6.57,308.74,3.77,301.7c-.17-.43-.87-.24-.7.19Z"/><rect class="cls-6" x="369.15" y="351.14" width="10.34" height="17.34" transform="translate(-144.65 375.76) rotate(-45.63)"/><rect class="cls-6" x="310.43" y="352.63" width="10.34" height="17.34" transform="translate(119.9 -76.7) rotate(17.06)"/><polygon class="cls-15" points="256.28 312.17 246.79 379.91 250.13 380 267.83 310.04 256.48 310.04 256.28 312.17"/><polygon class="cls-15" points="326.46 312.17 335.94 379.91 332.6 380 314.9 310.04 326.26 310.04 326.46 312.17"/><path class="cls-19" d="M258.11,302.17h66.41a9.7,9.7,0,0,1,9.7,9.7v.3a0,0,0,0,1,0,0H248.42a0,0,0,0,1,0,0v-.3A9.7,9.7,0,0,1,258.11,302.17Z"/><polygon class="cls-7" points="251.97 286.14 316.23 315.72 371.34 365.34 381.65 355.09 334.22 302.18 286.47 268.22 251.97 286.14"/><path class="cls-20" d="M248.12,271.65v12.1a19,19,0,0,0,19,19H327c-10.75,13-16.91,54.9-16.91,54.9l13.49,3.68,23.81-61A17.19,17.19,0,0,0,331.31,277H288.44l.31-5.38Z"/><path class="cls-8" d="M273.78,213.59,285,215.7a22.17,22.17,0,0,1,15.78,12l9.15,18.58-9.16,20.6-.93,9.25s-44.38,19.67-55.28,10.76l-.5-47.33,16.75-24.5Z"/><path class="cls-6" d="M258.25,199.89s3.54,15.92,2.79,25.18h13s-1.34-15.8,1.34-18.4Z"/><path class="cls-6" d="M281.07,186.75c-.16-2.91-1.37-5.65-2.56-8.31l-.48.24a11.84,11.84,0,0,0-11.15-2.57,15.82,15.82,0,0,0-9.14,7.26,19,19,0,0,0-1.41,16.37,18.53,18.53,0,0,0,12.15,11c2.18.61,4.72.72,6.5-.68a8.9,8.9,0,0,0,1.76-2.1,17.51,17.51,0,0,0,3.07-6.28,39.74,39.74,0,0,0,.22-5.57C280.19,193,281.25,189.89,281.07,186.75Z"/><path class="cls-15" d="M275.5,174.62a36.51,36.51,0,0,0-4.81-3.51,17.19,17.19,0,0,0-4.38-1.5c-3.81-.88-6.38-.63-9.29,2.2a12.21,12.21,0,0,0-3.75,8.19,8.07,8.07,0,0,1-.2,2.08,7.56,7.56,0,0,1-1.3,2.08A13.94,13.94,0,0,0,250.15,197c.68,1.87,1.77,4,3.54,5,1.42.82,5.1,1.43,5.79,3.14a17.65,17.65,0,0,1-1.21-8.23,4.51,4.51,0,0,1,.59-2.08,1.81,1.81,0,0,1,1.86-.84,4,4,0,0,1,1.3.84,4.38,4.38,0,0,0,2.6.9,1.81,1.81,0,0,0,1.05-.26,2,2,0,0,0,.69-1.27c.46-2.39-.34-5.1-1.11-7.34-.65-1.89-.77-4.36,1.74-4.2,2.26.14,4.58,1.53,7,1.66A20.12,20.12,0,0,0,287.75,180,28.73,28.73,0,0,1,275.5,174.62Z"/><polygon class="cls-21" points="270.01 225.07 273.78 212.7 276.01 213.12 278.37 232.99 270.01 225.07"/><path class="cls-6" d="M260.59,213.59l-11.89,2.25a17.67,17.67,0,0,0-13,10.5l-13.27,31.59a6.78,6.78,0,0,0,6.25,9.41L276.18,265l2.19-6.72L273.14,260l-29.72-2.52a3.13,3.13,0,0,1-2.27-5L261,225.07S264.61,215.26,260.59,213.59Z"/><path class="cls-8" d="M260.59,213.59l-11.89,2.25a17.67,17.67,0,0,0-13,10.5l-9.17,19.5c7.17-.75,14.61,6.71,19.72,2.68L261,225.07S264.61,215.26,260.59,213.59Z"/><polygon class="cls-21" points="260.48 212.82 270.01 225.07 263.29 233.89 257.19 213.59 260.48 212.82"/><path class="cls-15" d="M306.24,365l-3.31,8.38V380h40.58v-1.83a3.55,3.55,0,0,0-2.73-3.45l-6.54-1.55L320.57,365h-2.42l-1.1,2.42H310l-.66-2.42Z"/><path class="cls-8" d="M302.93,376.47V380h40.58v-1.83a3.53,3.53,0,0,0-.44-1.7Z"/><path class="cls-15" d="M373.49,368.3l4.74,7.66,5.31,4,25.18-32.52-1.47-1.09a3.52,3.52,0,0,0-4.39.12l-5.16,4.31-15.64,6.08-1.45,1.94,1.29,2.34-4.22,5.65-2.34-.92Z"/><path class="cls-8" d="M380.71,377.8l2.83,2.11,25.18-32.52-1.47-1.09a3.49,3.49,0,0,0-1.62-.67Z"/><polygon class="cls-15" points="220.77 271.3 200.56 385.68 204.07 385.68 232.74 270.48 220.77 271.3"/><polygon class="cls-15" points="538.3 271.3 558.51 385.68 555.01 385.68 526.33 270.48 538.3 271.3"/><rect class="cls-22" x="178.85" y="277.76" width="401.57" height="5.43"/><polygon class="cls-8" points="178.85 277.75 201.12 265.94 588.46 265.94 580.51 277.75 178.85 277.75"/><polygon class="cls-22" points="580.42 283.19 588.46 271.85 588.46 265.94 580.51 277.75 580.42 283.19"/><rect class="cls-15" x="242.96" y="267.26" width="29.05" height="3.81"/><path class="cls-15" d="M321.66,271.07h-59.8L276,234.59a2.27,2.27,0,0,1,2.12-1.46H333a2.28,2.28,0,0,1,2.12,3.09Z"/><path class="cls-23" d="M302.81,252.1a3.73,3.73,0,1,1-3.73-3.73A3.73,3.73,0,0,1,302.81,252.1Z"/><path class="cls-11" d="M344.72,264.07H342.1a4.32,4.32,0,0,1,0-8.64h1.68v1.83H342.1a2.49,2.49,0,0,0,0,5h2.62Z"/><path class="cls-11" d="M358.91,254H343v4.84a13.71,13.71,0,0,0,3.62,9.28h0v2.41h8.67v-2.41h0a13.71,13.71,0,0,0,3.62-9.28Z"/><g class="cls-24"><path class="cls-8" d="M355.63,254v4.84a13.71,13.71,0,0,1-3.62,9.28h0v2.41h1.87v-2.41h0a13.72,13.72,0,0,0,3.63-9.28V254Z"/></g><polygon class="cls-25" points="479.23 274.06 482.91 274.06 479.23 258.34 465.65 274.06 479.23 274.06"/><polygon class="cls-26" points="475.09 274.06 453.95 274.06 462.98 244.82 484.12 244.82 475.09 274.06"/><polygon class="cls-15" points="472.83 274.06 451.69 274.06 460.72 244.82 481.86 244.82 472.83 274.06"/><polygon class="cls-27" points="471.24 270.23 455.65 270.23 462.31 248.65 477.9 248.65 471.24 270.23"/><g class="cls-28"><polygon class="cls-8" points="456.78 269.66 463.26 248.65 462.31 248.65 455.65 270.23 471.24 270.23 471.42 269.66 456.78 269.66"/></g><path class="cls-9" d="M522.77,270.71h0a.69.69,0,0,1-1-.27l-22.25-39.63a.7.7,0,0,1,.27-.95h0a.71.71,0,0,1,1,.27L523,269.75A.71.71,0,0,1,522.77,270.71Z"/><rect class="cls-29" x="517.84" y="270.39" width="59.94" height="4.74" rx="1.81"/><path class="cls-9" d="M577.77,272.57a2.16,2.16,0,0,0-.53-1.39,2.21,2.21,0,0,1-2.2,2.2l-55.53,0a2.18,2.18,0,0,1-1.67-.81h0v.32a2.21,2.21,0,0,0,2.2,2.21l55.53,0a2.21,2.21,0,0,0,2.21-2.21Z"/><rect class="cls-30" x="557.9" y="271.65" width="4.36" height="1.67"/><rect class="cls-30" x="563.06" y="271.64" width="4.36" height="1.67"/><rect class="cls-30" x="526.41" y="271.66" width="4.36" height="1.67"/><rect class="cls-6" x="111.41" y="355.44" width="13.55" height="13.99" transform="translate(75.76 741.29) rotate(-155.55)"/><polygon class="cls-15" points="169.36 283.59 156.56 315.02 126.2 363.65 111.41 356.98 141.89 299.65 144.78 229.78 169.36 283.59"/><polygon class="cls-9" points="126.08 363.23 127.11 363.69 131.94 375.42 134.62 379.52 143.02 381.83 143.01 385.27 133.1 385.46 102.59 372.6 101.95 368.48 106.16 358.96 108.82 358.49 110.9 359.41 113.59 366.35 123.17 370.45 126.08 363.23"/><polygon class="cls-11" points="101.97 368.46 106.16 358.96 108.82 358.49 110.9 359.41 113.59 366.35 123.17 370.45 126.08 363.23 127.11 363.69 131.94 375.42 134.62 379.52 143.02 381.83 143.02 382.7 135.74 382.7 101.97 368.46"/><rect class="cls-6" x="157.82" y="364.21" width="12.63" height="13.05" transform="translate(328.27 741.46) rotate(180)"/><polygon class="cls-9" points="172.21 368.83 173.26 368.83 181.8 377.02 195.37 382.17 195.37 385.68 155.7 385.68 153.61 382.4 153.61 372.69 155.7 371.29 157.82 371.29 162.73 376.2 172.44 376.09 172.21 368.83"/><polygon class="cls-11" points="157.82 371.29 162.73 376.2 172.44 376.09 172.21 368.83 173.26 368.83 181.8 377.02 195.14 382.08 153.61 382.08 153.61 372.69 155.7 371.29 157.82 371.29"/><path class="cls-31" d="M235.91,181.39c-1.75-3.16-3.84-6.15-5.28-9.47-3.23-7.43-3-15.84-2.71-23.93l-1.09-3.05c-3.38-1.11-7.05-.55-10.56,0a8.08,8.08,0,0,0-7.16,4.85,33.94,33.94,0,0,0-3.14,5.69c-2,5.16-.09,10.15-.7,15.36-.63,5.49-2.6,11.15-3.86,16.54a45.81,45.81,0,0,0-1.33,7.6,23.43,23.43,0,0,0,4.66,15.3,56,56,0,0,0,5.13,5.21,2.81,2.81,0,0,0,4.66-1.16c1.53-4.67,4.38-9.34,7.76-10.2-.49-3.31,1.79-5.8,3.37-8.47,2-3.44,2.18-6.83,2.31-10.68,3.5,0,8.55,4.46,11.11,6.66C239.1,188,237.66,184.56,235.91,181.39Z"/><path class="cls-32" d="M143.56,259.17c.15.4.29.79.43,1.2l10.54,42.09v15.82l2-3.26,12.8-31.43-24.58-53.81Z"/><path class="cls-15" d="M140.82,218.07l-4.24,10.71c0,12.48,6.25,19.76,10.19,31.59l10.54,42.09v67.31h14.85l5.63-68.21-.93-68.22Z"/><path class="cls-6" d="M207,172.06l18.34,25.82a11.44,11.44,0,0,0,1,1.11l13.76,11.56,6.46-2.3a5.28,5.28,0,0,1,4.09.22l8.55,6.06-2.61.61-3.5,1.24.52,1.11,3.21-.19a2.69,2.69,0,0,1,2.75,2l.14.53-6.75.87c-2.71,1.32-5.8-.57-8.39-.93l-4.88-.35-1.23-.41-16.65-10.77a18.74,18.74,0,0,1-4.69-3.77l-14.07-13.81Z"/><path class="cls-11" d="M199.2,162.51l-5.46,24.35,17.93,16.43c5.42-1.15,6.16-18,6.16-18Z"/><path class="cls-6" d="M220.23,159.89s-9.85,4.81-11.23,8.93l-4.35-15.57,13.74-9.4Z"/><path class="cls-11" d="M197,149.69l-.08.05a119.18,119.18,0,0,0-37.33,34.43l-23.75,33.9c-3.09,23.65,23.49,34.29,43.3,27.49l8-26.69a16.25,16.25,0,0,1,7-9.15L198.5,207a20.32,20.32,0,0,0,7.88-8.77,43.74,43.74,0,0,0,3.32-25.08l-.7-4.31-4.35-22.45Z"/><path class="cls-32" d="M191.39,171.82c-4.73.21-7,3.76-7,8.49l-1.48,38a5.76,5.76,0,0,0,.11,1.18l1.52,7.74,2.51-8.38a16.25,16.25,0,0,1,7-9.15l.88-.54L200.53,182A8.85,8.85,0,0,0,191.39,171.82Z"/><path class="cls-6" d="M184.49,176.31v39.53a6.43,6.43,0,0,0,.12,1.24l13.25,36.75a8.13,8.13,0,0,1-.52,4.77l-3.81,8.69-.84,2.41a1.76,1.76,0,0,0,1.8,2.34l10.25-.82a2.5,2.5,0,0,0,2.26-2l1.88-9.92-13.66-43.85,7.72-37.7a9.28,9.28,0,0,0-9.59-10.67h0A9.27,9.27,0,0,0,184.49,176.31Z"/><path class="cls-11" d="M193.35,166.12c-5,.22-8.92,2.28-8.92,7.24l-2.38,28.28s15.94,7.49,18.86,1.71l3.74-27.74C205.53,169.82,199.19,165.85,193.35,166.12Z"/><polygon class="cls-6" points="207.52 255.93 213.7 270.47 209.52 270.5 205.24 262.42 207.52 255.93"/><path class="cls-6" d="M217,139.68c4-3.2,14.07-5,17.8-.29,2.13,2.72,1.42,6.6-.18,10.3a11,11,0,0,0-.68,6.44c.09.42-3,.18-3.28.53-.74,1.13-.71,1-1.3,1.8-1.26,1.74-2.75,3.49-4.79,4.15-2.69.87-5.71-.44-7.59-2.55a18.55,18.55,0,0,1-3.58-7.59,18.17,18.17,0,0,1-.68-3.42A11.32,11.32,0,0,1,217,139.68Z"/><path class="cls-33" d="M221.92,145.51c-2.54,1.7-3.1,5.24-5.22,7.43s-5.54,2.71-8.64,2.71c-2.86,0-5.88-.35-8.18-2.06a9.91,9.91,0,0,1-3.65-6.82,17.89,17.89,0,0,1,1.11-7.82,29.87,29.87,0,0,1,6.34-10.51,13.15,13.15,0,0,1,5-3.61c2.41-.87,5.06-.58,7.61-.29,4.43.51,8.95,1,13,3a18.76,18.76,0,0,1,5.6,3.83l2.42,2.87c.36.43.72.86,1,1.32a6.44,6.44,0,0,1,1.2,3.39,4.4,4.4,0,0,1-1.27,3.31,5.68,5.68,0,0,1-2.46,1.24,35,35,0,0,1-6.62.94C226.7,144.55,224.11,144,221.92,145.51Z"/><polygon class="cls-34" points="275.76 132.45 249.97 131.6 250.81 105.03 274.91 104.18 275.76 132.45"/><rect class="cls-8" x="249.96" y="104.18" width="24.94" height="27.42"/><path class="cls-1" d="M263,106a6.44,6.44,0,1,0,6.44,6.43H263Z"/><rect class="cls-1" x="254.2" y="120.29" width="17.61" height="1.7"/><rect class="cls-1" x="254.2" y="123.69" width="17.61" height="1.7"/><rect class="cls-1" x="254.2" y="127.08" width="11.24" height="1.7"/><polygon class="cls-34" points="275.33 165.64 249.54 164.8 250.39 138.23 274.48 137.38 275.33 165.64"/><rect class="cls-8" x="249.54" y="137.38" width="24.94" height="27.42"/><rect class="cls-1" x="251.08" y="160.28" width="22.7" height="1.7"/><rect class="cls-1" x="252" y="153.49" width="3.01" height="5.7"/><rect class="cls-1" x="256.43" y="148.72" width="3.01" height="10.47"/><rect class="cls-1" x="260.86" y="142.14" width="3.01" height="17.04"/><rect class="cls-1" x="265.3" y="146.38" width="3.01" height="12.81"/><rect class="cls-1" x="269.73" y="142.14" width="3.01" height="17.04"/><path class="cls-15" d="M380.26,277c-2.31,0-2.53-.89-.49-2l12-6.37a20,20,0,0,1,7.9-2h31.42c2.31,0,2.52.88.48,2L419.47,275a20.27,20.27,0,0,1-7.91,2Z"/><path class="cls-35" d="M385.53,275.93c-1.83,0-2-.7-.39-1.56l10-5.37a15.8,15.8,0,0,1,6.26-1.56h24.9c1.83,0,2,.7.39,1.55l-10.09,5.39a16,16,0,0,1-6.27,1.55Z"/><path class="cls-26" d="M387.72,272.11a.27.27,0,0,1-.12-.5l3.14-1.66a.26.26,0,0,1,.24.46l-3.13,1.67A.31.31,0,0,1,387.72,272.11Z"/><path class="cls-21" d="M575.32,292.58a10.22,10.22,0,0,1,1,.22l1.17.4,1.46.72,1.65,1.07c.57.42,1.11.93,1.73,1.44a23.44,23.44,0,0,1,3.36,3.95,37.24,37.24,0,0,1,3,5.12,61.71,61.71,0,0,1,2.32,6,64.28,64.28,0,0,1,1.72,6.56,69.1,69.1,0,0,1,1.2,6.85c.25,2.31.65,4.61.76,6.89s.25,4.51.37,6.68,0,4.26.05,6.25,0,3.87,0,5.6c-.37,6.93-.62,11.55-.62,11.55l-6-.43s.62-4.53,1.54-11.33c.15-1.71.31-3.55.48-5.51s.41-4,.46-6.15.11-4.34.17-6.58-.14-4.51-.2-6.79a65.8,65.8,0,0,0-.63-6.76,55.9,55.9,0,0,0-3-12.48,36,36,0,0,0-2.49-5.13,22.54,22.54,0,0,0-3-4c-.56-.53-1-1.06-1.57-1.49l-1.53-1.13-1.39-.78-1.11-.45C575.68,292.65,575.32,292.58,575.32,292.58Z"/><path class="cls-21" d="M589,355.15s-.59-2.77-1.68-6.94-2.65-9.72-4.55-15.19c-1-2.73-2-5.44-3.11-8-.59-1.24-1.11-2.46-1.7-3.59s-1.13-2.2-1.76-3.13a26.12,26.12,0,0,0-1.75-2.55c-.61-.71-1.1-1.37-1.6-1.85l-1.71-1.42,1.91,1.29c.56.44,1.13,1.06,1.86,1.73s1.33,1.55,2.11,2.44,1.41,2,2.2,3,1.43,2.27,2.2,3.48c1.43,2.46,2.86,5.11,4.18,7.79a223.92,223.92,0,0,1,9.23,21.84Z"/><path class="cls-21" d="M591.08,356.94s.26-2,.89-4.94a69.22,69.22,0,0,1,3.09-10.6,39.17,39.17,0,0,1,2.63-5.45,19.81,19.81,0,0,1,1.61-2.38,13.17,13.17,0,0,1,1.78-2,8.58,8.58,0,0,1,1.82-1.45,6.65,6.65,0,0,1,1.64-.88l1.57-.52-1.39.74a5.44,5.44,0,0,0-1.33,1,6.64,6.64,0,0,0-1.34,1.59,10.38,10.38,0,0,0-1.18,2.05,18.58,18.58,0,0,0-.94,2.41,36.05,36.05,0,0,0-1.19,5.43,65.07,65.07,0,0,0-.45,10.36c.09,2.85.31,4.66.31,4.66Z"/><path class="cls-36" d="M574.63,352.88l4.66,28.44a5.19,5.19,0,0,0,5.13,4.36h15.7a5.19,5.19,0,0,0,5.13-4.36l4.67-28.44Z"/><polygon class="cls-37" points="574.63 352.88 609.92 352.88 606.19 375.58 575.62 358.91 574.63 352.88"/><rect class="cls-36" x="570.25" y="345.31" width="44.05" height="8.12" rx="0.63"/><circle class="cls-1" cx="391.12" cy="36.27" r="36.27"/><circle class="cls-2" cx="391.12" cy="36.27" r="32.03" transform="translate(13.75 145.26) rotate(-21.41)"/><rect class="cls-1" x="389.91" y="6.14" width="2.83" height="31.35" rx="1.06"/><rect class="cls-1" x="396.76" y="21.63" width="2.83" height="19.45" rx="1.06" transform="translate(198.05 -314.29) rotate(55.43)"/><rect class="cls-38" x="577.34" y="43.82" width="36.01" height="14.42"/><rect class="cls-38" x="557.6" y="60.7" width="36.01" height="14.42"/><rect class="cls-38" x="537.59" y="43.82" width="36.01" height="14.42"/><rect class="cls-39" x="409.78" y="296.98" width="35.88" height="14.37"/><rect class="cls-39" x="390.11" y="313.8" width="35.88" height="14.37"/><rect class="cls-39" x="370.17" y="296.98" width="35.88" height="14.37"/><path class="cls-40" d="M517.49,78.82l5.93-8.62a20.71,20.71,0,1,0-12,.84l5.37,7.78A.43.43,0,0,0,517.49,78.82Z"/><circle class="cls-41" cx="516.11" cy="50.98" r="14.71"/><path class="cls-8" d="M522.42,52.9h1.92a.71.71,0,0,0,.7-.71V49.75a.7.7,0,0,0-.71-.7h-1.49a.58.58,0,0,1-.55-.39c-.06-.14-.11-.28-.18-.42a.6.6,0,0,1,.11-.66l1.06-1.06a.69.69,0,0,0,0-1l-1.72-1.73a.72.72,0,0,0-1,0l-1.06,1.07a.59.59,0,0,1-.64.12l-.46-.19a.56.56,0,0,1-.37-.53V42.75a.7.7,0,0,0-.7-.7h-2.44a.7.7,0,0,0-.71.7v1.5a.59.59,0,0,1-.39.55,3.93,3.93,0,0,0-.43.18.59.59,0,0,1-.67-.11l-1.06-1.06a.7.7,0,0,0-1,0l-1.73,1.73a.7.7,0,0,0,0,1L510,47.61a.56.56,0,0,1,.12.64c-.06.15-.13.31-.18.45a.57.57,0,0,1-.54.37h-1.52a.7.7,0,0,0-.7.7v2.44a.7.7,0,0,0,.7.7h1.5a.59.59,0,0,1,.55.39c.06.14.11.28.18.41a.61.61,0,0,1-.11.67l-1.06,1.06a.71.71,0,0,0,0,1l1.73,1.73a.71.71,0,0,0,1,0l1.07-1.07a.59.59,0,0,1,.64-.13l.46.19a.58.58,0,0,1,.37.54v1.51a.7.7,0,0,0,.7.7h2.44a.7.7,0,0,0,.7-.71V57.71a.58.58,0,0,1,.39-.55c.14-.06.28-.11.42-.18a.6.6,0,0,1,.66.11l1.06,1.06a.71.71,0,0,0,1,0l1.72-1.73a.7.7,0,0,0,0-1l-1.07-1.07a.58.58,0,0,1-.12-.64C522.25,53.36,522.41,52.92,522.42,52.9Zm-9.72-2.54a3.46,3.46,0,1,1,2.16,3.85A3.47,3.47,0,0,1,512.7,50.36Z"/></g></g></svg>