<svg xmlns="http://www.w3.org/2000/svg" viewBox="0 0 44.53 29.18"><defs><style>.cls-1{fill:#efefef;}.cls-2{fill:#cccbca;}.cls-3{fill:#3f4a5a;}.cls-4{fill:#81cf9b;}.cls-5{fill:#fff;}</style></defs><g id="Layer_2" data-name="Layer 2"><g id="Layer_1-2" data-name="Layer 1"><path class="cls-1" d="M0,22.56a1.47,1.47,0,0,0,.44,1.06,1.49,1.49,0,0,0,1.05.44H37.91A1.49,1.49,0,0,0,39,23.62a1.47,1.47,0,0,0,.44-1.06V1.49a1.44,1.44,0,0,0-.44-1A1.49,1.49,0,0,0,37.91,0H1.49a1.49,1.49,0,0,0-1,.44A1.44,1.44,0,0,0,0,1.49Z"/><rect class="cls-2" x="8.25" y="16.21" width="26.25" height="1.68"/><rect class="cls-2" x="8.25" y="12.86" width="26.25" height="1.67"/><rect class="cls-2" x="8.25" y="9.52" width="26.25" height="1.67"/><rect class="cls-3" x="4.9" y="6.17" width="29.6" height="1.67"/><rect class="cls-2" x="4.9" y="9.52" width="1.67" height="1.67"/><rect class="cls-2" x="4.9" y="12.86" width="1.67" height="1.67"/><rect class="cls-2" x="4.9" y="16.21" width="1.67" height="1.68"/><polygon class="cls-1" points="4.9 29.18 4.9 24.06 10.02 24.06 4.9 29.18"/><path class="cls-4" d="M44.53,24.06a5.13,5.13,0,1,1-5.13-5.13A5.13,5.13,0,0,1,44.53,24.06Z"/><polygon class="cls-5" points="38.46 26.69 36.21 24.43 36.96 23.68 38.46 25.18 41.85 21.8 42.6 22.55 38.46 26.69"/></g></g></svg>