<svg xmlns="http://www.w3.org/2000/svg" viewBox="0 0 32.01 42.82"><defs><style>.cls-1{fill:#fad97f;}.cls-2{fill:#f8c963;}.cls-3{fill:#efefef;}.cls-4{fill:#cccbca;}.cls-5{fill:#3f4a5a;}</style></defs><g id="Layer_2" data-name="Layer 2"><g id="Layer_1-2" data-name="Layer 1"><polygon class="cls-1" points="24.26 39.23 13.5 28.46 9.91 32.05 12.7 34.84 14.29 34.84 14.29 36.43 17.49 39.62 19.08 39.63 19.08 41.22 20.67 41.22 20.67 42.81 24.27 42.81 24.26 39.23"/><polygon class="cls-2" points="24.26 40.82 24.26 39.23 13.5 28.46 12.7 29.26 24.26 40.82"/><path class="cls-2" d="M12,20.62a7,7,0,1,0,0,10A7,7,0,0,0,12,20.62ZM6.26,24.8a1,1,0,0,1-1.4,0,1,1,0,0,1,0-1.39,1,1,0,1,1,1.4,1.39Z"/><path class="cls-1" d="M10.94,21.71a5.5,5.5,0,1,0,0,7.78A5.52,5.52,0,0,0,10.94,21.71ZM6.26,24.8a1,1,0,0,1-1.4,0,1,1,0,0,1,0-1.39,1,1,0,1,1,1.4,1.39Z"/><path class="cls-3" d="M1.38,0a1.36,1.36,0,0,0-1,.4,1.4,1.4,0,0,0-.41,1V14.13a1.37,1.37,0,0,0,.41,1,1.37,1.37,0,0,0,1,.41H30.63a1.38,1.38,0,0,0,1-.41,1.36,1.36,0,0,0,.4-1V1.38a1.38,1.38,0,0,0-.4-1,1.37,1.37,0,0,0-1-.4ZM5.55,8.74a1,1,0,1,1,1-1A1,1,0,0,1,5.55,8.74Z"/><rect class="cls-4" x="10.3" y="10.08" width="17.95" height="1.55"/><rect class="cls-4" x="10.3" y="6.98" width="17.95" height="1.55"/><rect class="cls-5" x="10.3" y="3.88" width="8.98" height="1.55"/><path class="cls-4" d="M5.56,24.53a.42.42,0,0,1-.43-.42V7.75a.43.43,0,0,1,.85,0V24.11A.42.42,0,0,1,5.56,24.53Z"/></g></g></svg>