<svg xmlns="http://www.w3.org/2000/svg" viewBox="0 0 22.6 13.18"><defs><style>.cls-1{fill:#cb001c;}.cls-2{fill:#fff;}.cls-3{fill:#2a3560;}</style></defs><title>us-flag</title><g id="Layer_2" data-name="Layer 2"><g id="Layer_1-2" data-name="Layer 1"><rect class="cls-1" y="12.17" width="22.6" height="1.02"/><rect class="cls-2" y="11.15" width="22.6" height="1.02"/><rect class="cls-1" y="10.14" width="22.6" height="1.02"/><rect class="cls-2" y="9.12" width="22.6" height="1.02"/><rect class="cls-1" y="8.11" width="22.6" height="1.02"/><rect class="cls-2" y="7.1" width="22.6" height="1.02"/><rect class="cls-1" y="6.08" width="22.6" height="1.02"/><rect class="cls-2" y="5.07" width="22.6" height="1.02"/><rect class="cls-1" y="4.06" width="22.6" height="1.02"/><rect class="cls-2" y="3.04" width="22.6" height="1.02"/><rect class="cls-1" y="2.03" width="22.6" height="1.02"/><rect class="cls-2" y="1.01" width="22.6" height="1.02"/><rect class="cls-1" width="22.6" height="1.02"/><rect class="cls-3" width="10.32" height="7.1"/><polygon class="cls-2" points="0.93 0.78 1.02 1.05 1.3 1.05 1.07 1.21 1.16 1.48 0.93 1.31 0.7 1.48 0.79 1.21 0.56 1.05 0.84 1.05 0.93 0.78"/><polygon class="cls-2" points="0.93 1.96 1.02 2.23 1.3 2.23 1.07 2.4 1.16 2.67 0.93 2.5 0.7 2.67 0.79 2.4 0.56 2.23 0.84 2.23 0.93 1.96"/><polygon class="cls-2" points="0.93 3.15 1.02 3.42 1.3 3.42 1.07 3.58 1.16 3.85 0.93 3.69 0.7 3.85 0.79 3.58 0.56 3.42 0.84 3.42 0.93 3.15"/><polygon class="cls-2" points="0.93 4.33 1.02 4.6 1.3 4.6 1.07 4.77 1.16 5.04 0.93 4.87 0.7 5.04 0.79 4.77 0.56 4.6 0.84 4.6 0.93 4.33"/><polygon class="cls-2" points="0.93 5.52 1.02 5.79 1.3 5.79 1.07 5.95 1.16 6.22 0.93 6.05 0.7 6.22 0.79 5.95 0.56 5.79 0.84 5.79 0.93 5.52"/><polygon class="cls-2" points="1.76 1.4 1.84 1.67 2.12 1.67 1.9 1.84 1.98 2.1 1.76 1.94 1.53 2.1 1.61 1.84 1.39 1.67 1.67 1.67 1.76 1.4"/><polygon class="cls-2" points="1.76 2.59 1.84 2.86 2.12 2.86 1.9 3.02 1.98 3.29 1.76 3.13 1.53 3.29 1.61 3.02 1.39 2.86 1.67 2.86 1.76 2.59"/><polygon class="cls-2" points="1.76 3.77 1.84 4.04 2.12 4.04 1.9 4.21 1.98 4.47 1.76 4.31 1.53 4.47 1.61 4.21 1.39 4.04 1.67 4.04 1.76 3.77"/><polygon class="cls-2" points="1.76 4.96 1.84 5.23 2.12 5.23 1.9 5.39 1.98 5.66 1.76 5.5 1.53 5.66 1.61 5.39 1.39 5.23 1.67 5.23 1.76 4.96"/><polygon class="cls-2" points="2.59 0.78 2.68 1.05 2.96 1.05 2.73 1.21 2.82 1.48 2.59 1.31 2.36 1.48 2.45 1.21 2.22 1.05 2.5 1.05 2.59 0.78"/><polygon class="cls-2" points="2.59 1.96 2.68 2.23 2.96 2.23 2.73 2.4 2.82 2.67 2.59 2.5 2.36 2.67 2.45 2.4 2.22 2.23 2.5 2.23 2.59 1.96"/><polygon class="cls-2" points="2.59 3.15 2.68 3.42 2.96 3.42 2.73 3.58 2.82 3.85 2.59 3.69 2.36 3.85 2.45 3.58 2.22 3.42 2.5 3.42 2.59 3.15"/><polygon class="cls-2" points="2.59 4.33 2.68 4.6 2.96 4.6 2.73 4.77 2.82 5.04 2.59 4.87 2.36 5.04 2.45 4.77 2.22 4.6 2.5 4.6 2.59 4.33"/><polygon class="cls-2" points="2.59 5.52 2.68 5.79 2.96 5.79 2.73 5.95 2.82 6.22 2.59 6.05 2.36 6.22 2.45 5.95 2.22 5.79 2.5 5.79 2.59 5.52"/><polygon class="cls-2" points="3.42 1.4 3.5 1.67 3.79 1.67 3.56 1.84 3.65 2.1 3.42 1.94 3.19 2.1 3.27 1.84 3.04 1.67 3.33 1.67 3.42 1.4"/><polygon class="cls-2" points="3.42 2.59 3.5 2.86 3.79 2.86 3.56 3.02 3.65 3.29 3.42 3.13 3.19 3.29 3.27 3.02 3.04 2.86 3.33 2.86 3.42 2.59"/><polygon class="cls-2" points="3.42 3.77 3.5 4.04 3.79 4.04 3.56 4.21 3.65 4.47 3.42 4.31 3.19 4.47 3.27 4.21 3.04 4.04 3.33 4.04 3.42 3.77"/><polygon class="cls-2" points="3.42 4.96 3.5 5.23 3.79 5.23 3.56 5.39 3.65 5.66 3.42 5.5 3.19 5.66 3.27 5.39 3.04 5.23 3.33 5.23 3.42 4.96"/><polygon class="cls-2" points="4.25 0.78 4.34 1.05 4.62 1.05 4.39 1.21 4.48 1.48 4.25 1.31 4.03 1.48 4.11 1.21 3.88 1.05 4.17 1.05 4.25 0.78"/><polygon class="cls-2" points="4.25 1.96 4.34 2.23 4.62 2.23 4.39 2.4 4.48 2.67 4.25 2.5 4.03 2.67 4.11 2.4 3.88 2.23 4.17 2.23 4.25 1.96"/><polygon class="cls-2" points="4.25 3.15 4.34 3.42 4.62 3.42 4.39 3.58 4.48 3.85 4.25 3.69 4.03 3.85 4.11 3.58 3.88 3.42 4.17 3.42 4.25 3.15"/><polygon class="cls-2" points="4.25 4.33 4.34 4.6 4.62 4.6 4.39 4.77 4.48 5.04 4.25 4.87 4.03 5.04 4.11 4.77 3.88 4.6 4.17 4.6 4.25 4.33"/><polygon class="cls-2" points="4.25 5.52 4.34 5.79 4.62 5.79 4.39 5.95 4.48 6.22 4.25 6.05 4.03 6.22 4.11 5.95 3.88 5.79 4.17 5.79 4.25 5.52"/><polygon class="cls-2" points="5.08 1.4 5.16 1.67 5.45 1.67 5.22 1.84 5.3 2.1 5.08 1.94 4.85 2.1 4.93 1.84 4.71 1.67 4.99 1.67 5.08 1.4"/><polygon class="cls-2" points="5.08 2.59 5.16 2.86 5.45 2.86 5.22 3.02 5.3 3.29 5.08 3.13 4.85 3.29 4.93 3.02 4.71 2.86 4.99 2.86 5.08 2.59"/><polygon class="cls-2" points="5.08 3.77 5.16 4.04 5.45 4.04 5.22 4.21 5.3 4.47 5.08 4.31 4.85 4.47 4.93 4.21 4.71 4.04 4.99 4.04 5.08 3.77"/><polygon class="cls-2" points="5.08 4.96 5.16 5.23 5.45 5.23 5.22 5.39 5.3 5.66 5.08 5.5 4.85 5.66 4.93 5.39 4.71 5.23 4.99 5.23 5.08 4.96"/><polygon class="cls-2" points="5.91 0.78 6 1.05 6.28 1.05 6.05 1.21 6.14 1.48 5.91 1.31 5.68 1.48 5.77 1.21 5.54 1.05 5.83 1.05 5.91 0.78"/><polygon class="cls-2" points="5.91 1.96 6 2.23 6.28 2.23 6.05 2.4 6.14 2.67 5.91 2.5 5.68 2.67 5.77 2.4 5.54 2.23 5.83 2.23 5.91 1.96"/><polygon class="cls-2" points="5.91 3.15 6 3.42 6.28 3.42 6.05 3.58 6.14 3.85 5.91 3.69 5.68 3.85 5.77 3.58 5.54 3.42 5.83 3.42 5.91 3.15"/><polygon class="cls-2" points="5.91 4.33 6 4.6 6.28 4.6 6.05 4.77 6.14 5.04 5.91 4.87 5.68 5.04 5.77 4.77 5.54 4.6 5.83 4.6 5.91 4.33"/><polygon class="cls-2" points="5.91 5.52 6 5.79 6.28 5.79 6.05 5.95 6.14 6.22 5.91 6.05 5.68 6.22 5.77 5.95 5.54 5.79 5.83 5.79 5.91 5.52"/><polygon class="cls-2" points="6.74 1.4 6.82 1.67 7.11 1.67 6.88 1.84 6.96 2.1 6.74 1.94 6.51 2.1 6.6 1.84 6.37 1.67 6.65 1.67 6.74 1.4"/><polygon class="cls-2" points="6.74 2.59 6.82 2.86 7.11 2.86 6.88 3.02 6.96 3.29 6.74 3.13 6.51 3.29 6.6 3.02 6.37 2.86 6.65 2.86 6.74 2.59"/><polygon class="cls-2" points="6.74 3.77 6.82 4.04 7.11 4.04 6.88 4.21 6.96 4.47 6.74 4.31 6.51 4.47 6.6 4.21 6.37 4.04 6.65 4.04 6.74 3.77"/><polygon class="cls-2" points="6.74 4.96 6.82 5.23 7.11 5.23 6.88 5.39 6.96 5.66 6.74 5.5 6.51 5.66 6.6 5.39 6.37 5.23 6.65 5.23 6.74 4.96"/><polygon class="cls-2" points="7.57 0.78 7.66 1.05 7.94 1.05 7.71 1.21 7.8 1.48 7.57 1.31 7.34 1.48 7.43 1.21 7.2 1.05 7.49 1.05 7.57 0.78"/><polygon class="cls-2" points="7.57 1.96 7.66 2.23 7.94 2.23 7.71 2.4 7.8 2.67 7.57 2.5 7.34 2.67 7.43 2.4 7.2 2.23 7.49 2.23 7.57 1.96"/><polygon class="cls-2" points="7.57 3.15 7.66 3.42 7.94 3.42 7.71 3.58 7.8 3.85 7.57 3.69 7.34 3.85 7.43 3.58 7.2 3.42 7.49 3.42 7.57 3.15"/><polygon class="cls-2" points="7.57 4.33 7.66 4.6 7.94 4.6 7.71 4.77 7.8 5.04 7.57 4.87 7.34 5.04 7.43 4.77 7.2 4.6 7.49 4.6 7.57 4.33"/><polygon class="cls-2" points="7.57 5.52 7.66 5.79 7.94 5.79 7.71 5.95 7.8 6.22 7.57 6.05 7.34 6.22 7.43 5.95 7.2 5.79 7.49 5.79 7.57 5.52"/><polygon class="cls-2" points="8.4 1.4 8.49 1.67 8.77 1.67 8.54 1.84 8.63 2.1 8.4 1.94 8.17 2.1 8.26 1.84 8.03 1.67 8.31 1.67 8.4 1.4"/><polygon class="cls-2" points="8.4 2.59 8.49 2.86 8.77 2.86 8.54 3.02 8.63 3.29 8.4 3.13 8.17 3.29 8.26 3.02 8.03 2.86 8.31 2.86 8.4 2.59"/><polygon class="cls-2" points="8.4 3.77 8.49 4.04 8.77 4.04 8.54 4.21 8.63 4.47 8.4 4.31 8.17 4.47 8.26 4.21 8.03 4.04 8.31 4.04 8.4 3.77"/><polygon class="cls-2" points="8.4 4.96 8.49 5.23 8.77 5.23 8.54 5.39 8.63 5.66 8.4 5.5 8.17 5.66 8.26 5.39 8.03 5.23 8.31 5.23 8.4 4.96"/><polygon class="cls-2" points="9.23 0.78 9.32 1.05 9.6 1.05 9.37 1.21 9.46 1.48 9.23 1.31 9.01 1.48 9.09 1.21 8.87 1.05 9.15 1.05 9.23 0.78"/><polygon class="cls-2" points="9.23 1.96 9.32 2.23 9.6 2.23 9.37 2.4 9.46 2.67 9.23 2.5 9.01 2.67 9.09 2.4 8.87 2.23 9.15 2.23 9.23 1.96"/><polygon class="cls-2" points="9.23 3.15 9.32 3.42 9.6 3.42 9.37 3.58 9.46 3.85 9.23 3.69 9.01 3.85 9.09 3.58 8.87 3.42 9.15 3.42 9.23 3.15"/><polygon class="cls-2" points="9.23 4.33 9.32 4.6 9.6 4.6 9.37 4.77 9.46 5.04 9.23 4.87 9.01 5.04 9.09 4.77 8.87 4.6 9.15 4.6 9.23 4.33"/><polygon class="cls-2" points="9.23 5.52 9.32 5.79 9.6 5.79 9.37 5.95 9.46 6.22 9.23 6.05 9.01 6.22 9.09 5.95 8.87 5.79 9.15 5.79 9.23 5.52"/></g></g></svg>